<?xml version="1.0" encoding="UTF-8"?>
<svg width="120px" height="120px" viewBox="0 0 120 120" version="1.1" xmlns="http://www.w3.org/2000/svg" xmlns:xlink="http://www.w3.org/1999/xlink">
    <!-- Generator: Sketch 51 (57462) - http://www.bohemiancoding.com/sketch -->
    <title>Illustrations / Contact / Call</title>
    <desc>Created with Sketch.</desc>
    <defs>
        <linearGradient x1="0%" y1="48.8990039%" x2="100%" y2="48.8990048%" id="linearGradient-1">
            <stop stop-color="#FF8566" offset="0%"></stop>
            <stop stop-color="#FF0074" offset="100%"></stop>
        </linearGradient>
        <linearGradient x1="-15.9278607%" y1="50.8423504%" x2="128.3652%" y2="30.9888582%" id="linearGradient-2">
            <stop stop-color="#FF8566" offset="0%"></stop>
            <stop stop-color="#FF0074" offset="100%"></stop>
        </linearGradient>
    </defs>
    <g id="Illustrations-/-Contact-/-Call" stroke="none" stroke-width="1" fill="none" fill-rule="evenodd">
        <circle id="Oval" stroke="url(#linearGradient-1)" stroke-width="2" cx="59.9336283" cy="59.9336283" r="58.9336283"></circle>
        <path d="M60.6610422,26.3875059 L35.6042127,33.1014631 C32.6665835,33.8885985 30.9036218,36.923471 31.6865819,39.8455178 L46.4391126,94.9027121 C47.2220727,97.8247588 50.2662786,99.5715547 53.2039077,98.7844193 L78.2607372,92.0704621 C81.1983664,91.2833267 82.9613281,88.2484542 82.178368,85.3264074 L67.4260398,30.2699688 C66.6438394,27.3477185 63.5986713,25.6003706 60.6610422,26.3875059 Z M43.3835228,35.4973085 L55.121125,32.3522275 C55.6179467,32.2191045 56.1326907,32.5144698 56.2651076,33.0086561 C56.3975244,33.5028425 56.0994256,34.0160083 55.602604,34.1491313 L43.8650017,37.2942124 C43.36818,37.4273353 42.853436,37.13197 42.7210191,36.6377837 C42.5886023,36.1435974 42.8867011,35.6304315 43.3835228,35.4973085 Z M65.1265256,93.166576 C63.3701774,93.6371881 61.5661679,92.6020293 61.0980521,90.8549975 C60.6299363,89.1079657 61.674675,87.3094872 63.4310233,86.8388751 C65.1873715,86.368263 66.991381,87.4034217 67.4594968,89.1504535 C67.927815,90.898241 66.8828738,92.6959639 65.1265256,93.166576 Z M78.1480433,80.5070991 L47.519822,88.7139063 L35.4194749,43.5547959 L66.0476962,35.3479888 L78.1480433,80.5070991 Z M73.5066914,25.5213476 C73.2559695,25.3792621 73.0590613,25.141562 72.9736525,24.8413402 C71.6899075,20.3035562 66.9970522,17.6460506 62.5126495,18.916282 C61.9189633,19.0845674 61.2986415,18.7334761 61.1293679,18.1326187 C60.9591131,17.5311872 61.3033282,16.9074188 61.8972236,16.7399144 C64.646679,15.9613468 67.5355573,16.3114523 70.0327543,17.7257849 C72.5299514,19.1401174 74.3390441,21.4511692 75.1255618,24.2320923 C75.2958166,24.8335238 74.9516015,25.4572922 74.3577061,25.6247966 C74.0599864,25.7087557 73.7566413,25.66364 73.5066914,25.5213476 Z M69.0678491,26.9091162 C68.8171272,26.7670308 68.6202189,26.5293306 68.5348102,26.2291088 C68.2459382,25.2066085 67.5805686,24.3569781 66.6636143,23.837598 C65.7456788,23.3176437 64.68368,23.1895324 63.6730319,23.4754019 C63.0785738,23.6438942 62.459024,23.292596 62.2897504,22.6917386 C62.1194955,22.0903071 62.4637107,21.4665387 63.0576061,21.2990343 C64.6434122,20.849844 66.3094597,21.0521532 67.7500085,21.8673474 C69.1907665,22.6833226 70.2338056,24.0160281 70.6874914,25.6196541 C70.8577463,26.2210856 70.5135311,26.844854 69.9196357,27.0123584 C69.6213533,27.0973053 69.317799,27.0514086 69.0678491,26.9091162 Z" id="Combined-Shape" fill="url(#linearGradient-2)" fill-rule="nonzero"></path>
    </g>
</svg>