<?xml version="1.0" encoding="UTF-8"?>
<svg width="118px" height="118px" viewBox="0 0 118 118" version="1.1" xmlns="http://www.w3.org/2000/svg" xmlns:xlink="http://www.w3.org/1999/xlink">
    <title>contact-sms</title>
    <g id="Page-1" stroke="none" stroke-width="1" fill="none" fill-rule="evenodd">
        <g id="contact-whatsapp-preview" transform="translate(-131.000000, -60.000000)">
            <g id="contact-sms" transform="translate(131.000000, 60.000000)">
                <circle id="Oval" fill="#00D856" cx="58.9336283" cy="58.9336283" r="58.9336283"></circle>
                <path d="M30,86 L34.0963744,71.1060837 C31.5686176,66.746417 30.2403919,61.8043336 30.2428201,56.7365836 C30.2501047,40.8929168 43.2045548,28 59.1214096,28 C66.8455156,28.0024167 74.0961225,30.9966667 79.549861,36.4293334 C85.0011713,41.8620001 88.0024273,49.0830002 88,56.7631669 C87.9927145,72.6092504 75.0382644,85.5021672 59.1214096,85.5021672 C54.2892904,85.4997505 49.5275891,84.2938338 45.3098047,82.0028338 L30,86 Z M46.4459219,76.5465852 C50.4905053,78.9469052 54.3516827,80.3846849 59.4580898,80.3870973 C72.6053989,80.3870973 83.3153398,69.6905957 83.3225811,56.5407017 C83.327406,43.3642714 72.6681431,32.6822442 59.4773957,32.6774194 C46.3204337,32.6774194 35.6177325,43.373921 35.6129033,56.5214026 C35.6104928,61.8889524 37.1839226,65.9079808 39.8264159,70.1127625 L37.4155933,78.9131319 L46.4459219,76.5465852 Z M73.8626231,64.0552972 C73.6849414,63.7552783 73.2095229,63.5762348 72.493994,63.2157284 C71.7808662,62.8552219 68.2728538,61.1155965 67.6173525,60.8760654 C66.9642524,60.6365342 66.4888338,60.5155589 66.0110142,61.2365719 C65.5355957,61.9551654 64.1669666,63.5762348 63.7515757,64.0552972 C63.3361848,64.5343595 62.9183928,64.5948472 62.205265,64.2343407 C61.4921372,63.8738342 59.1918799,63.1165286 56.4666273,60.6655683 C54.3464528,58.758997 52.912994,56.404817 52.497603,55.683804 C52.0822121,54.9652105 52.4543832,54.57567 52.8097465,54.217583 C53.1314944,53.8957886 53.5228743,53.3780142 53.8806387,52.95702 C54.2432054,52.5408648 54.3608594,52.240846 54.6009698,51.7593642 C54.8386791,51.2803018 54.721025,50.8593077 54.5409422,50.4988012 C54.3608594,50.1407142 52.9346039,46.6009759 52.3415313,45.1613694 C51.7604642,43.7604751 51.1721938,43.9491966 50.735193,43.927421 L49.3665639,43.903226 C48.8911454,43.903226 48.11799,44.0822694 47.4648898,44.8032824 C46.8117897,45.5242954 44.9677421,47.2615012 44.9677421,50.8012395 C44.9677421,54.3409778 47.5249174,57.7597408 47.8802808,58.2388031 C48.2380452,58.7178654 52.9105929,65.9812245 60.0682828,69.0951296 C61.7706652,69.8354987 63.1008766,70.2782684 64.1357523,70.6097408 C65.8453381,71.1565493 67.4012532,71.0791251 68.6306183,70.8952426 C70.0016484,70.6895845 72.8517584,69.1556173 73.4472321,67.4764796 C74.0427058,65.7949225 74.0427058,64.355316 73.8626231,64.0552972 L73.8626231,64.0552972 Z" id="Shape" fill="#FFFFFF" fill-rule="nonzero"></path>
            </g>
        </g>
    </g>
</svg>