<?xml version="1.0" encoding="UTF-8"?>
<svg width="68px" height="24px" viewBox="0 0 68 24" version="1.1" xmlns="http://www.w3.org/2000/svg" xmlns:xlink="http://www.w3.org/1999/xlink">
    <!-- Generator: Sketch 51 (57462) - http://www.bohemiancoding.com/sketch -->
    <title>footer-logo-akg</title>
    <desc>Created with Sketch.</desc>
    <defs></defs>
    <g id="Symbols" stroke="none" stroke-width="1" fill="none" fill-rule="evenodd">
        <g id="Support-/-Static-/-Support-Footer-/-Desktop" transform="translate(-479.000000, -513.000000)" fill="#E7EEF0">
            <g id="Logo-group" transform="translate(260.000000, 492.000000)">
                <g id="footer-logo-akg" transform="translate(219.000000, 21.000000)">
                    <path d="M67.0074464,3.24324324 C66.7370493,3.24324324 66.5014757,3.14795561 66.3065676,2.95920096 C66.1155542,2.76417222 66.0194175,2.53191912 66.0194175,2.26807154 C66.0194175,2.00612859 66.1175016,1.7751079 66.3104623,1.58133958 C66.5014757,1.39261294 66.7363906,1.2972973 67.0074464,1.2972973 C67.2797908,1.2972973 67.5172545,1.39261294 67.7127926,1.58133958 C67.903176,1.77068243 68,2.00170312 68,2.26807154 C68,2.537577 67.905782,2.76355601 67.7134513,2.95858475 C67.5172545,3.14795561 67.2797908,3.24324324 67.0074464,3.24324324 Z M67.0074464,1.46456882 C66.7809222,1.46456882 66.5866728,1.54347101 66.4298528,1.70063118 C66.2665894,1.85969598 66.1872057,2.04590179 66.1872057,2.26994816 C66.1872057,2.49528296 66.265272,2.6827772 66.4253281,2.84119779 C66.5892502,3.00087879 66.7796335,3.07852056 67.0074464,3.07852056 C67.2371779,3.07852056 67.4340047,2.99897416 67.5927721,2.84119779 C67.7534581,2.68213299 67.8321831,2.49528296 67.8321831,2.26994816 C67.8321831,2.04464137 67.7534581,1.85843556 67.5927721,1.70063118 C67.432086,1.54156638 67.2410726,1.46456882 67.0074464,1.46456882 Z M67.2604031,2.80711047 L67.2546182,2.79131323 L67.2449101,2.73515459 L67.2449101,2.64804567 C67.2449101,2.53570038 67.2132941,2.46057944 67.1526394,2.42397129 C67.1100552,2.40251617 67.0409811,2.39114439 66.9480804,2.39114439 L66.8164043,2.39114439 L66.8164043,2.80711047 L66.5950636,2.80711047 L66.5950636,1.72273052 L66.9887173,1.72273052 C67.1255482,1.72273052 67.2236323,1.73536271 67.2894417,1.76059909 C67.4049661,1.80667438 67.4656494,1.90451086 67.4656494,2.04273674 C67.4656494,2.14309405 67.4275326,2.21821499 67.3527023,2.2655507 C67.3268998,2.28070373 67.2997799,2.2926637 67.2694526,2.30277506 C67.3178503,2.32109314 67.3565684,2.35075499 67.3856357,2.39243282 C67.4269026,2.44733104 67.448209,2.50601052 67.448209,2.56597843 L67.448209,2.64426442 C67.448209,2.66824037 67.448209,2.69095591 67.4520751,2.71874114 C67.4520751,2.74778678 67.4578886,2.76293981 67.4598359,2.76607685 L67.4714628,2.80711047 L67.2604031,2.80711047 Z M66.9693582,2.22703792 C67.0493719,2.22703792 67.1074778,2.22011962 67.146196,2.20622701 C67.2113753,2.18160684 67.2449101,2.13236649 67.2449101,2.06041061 C67.2449101,1.98971514 67.2242909,1.94551647 67.1836254,1.92406135 C67.1378051,1.89820877 67.0635762,1.88557657 66.9609674,1.88557657 L66.8164043,1.88557657 L66.8164043,2.22703792 L66.9693582,2.22703792 Z" id="Fill-21"></path>
                    <path d="M64.8465251,20.2702703 C64.8276445,20.2702703 64.8071093,20.2713841 64.7826739,20.2752533 C64.758268,20.2802069 64.7349553,20.2884435 64.7132973,20.3011355 C64.6900142,20.3143257 64.6705722,20.3330852 64.6567146,20.3556259 C64.6411432,20.3798373 64.6334019,20.4112594 64.6334019,20.4481335 L64.6334019,22.5382317 L62.3361149,20.2702703 L61.8932039,20.2702703 L61.8932039,23.5128155 L62.2956058,23.5128155 L62.2956058,21.068134 L64.6267243,23.4324429 C64.7216295,23.5199676 64.8532028,23.5134018 64.9808167,23.5134018 L65.0291262,23.5134018 L65.0291262,20.2702703 L64.8465251,20.2702703 Z" id="Fill-30"></path>
                    <path d="M61.3980583,23.5135135 L59.6254989,20.2702703 L59.4173107,20.2702703 L57.6019417,23.5135135 L58.0160106,23.5135135 L58.5800647,22.5044293 L59.8678739,22.5044293 L59.6899258,22.1812034 L58.7614133,22.1812034 L59.3579845,21.1150169 L60.528872,23.2613859 C60.5750821,23.3492046 60.6326777,23.4143947 60.7005354,23.4542602 C60.7684235,23.4951869 60.8573824,23.5135135 60.9651957,23.5135135 L61.3980583,23.5135135 Z" id="Fill-28"></path>
                    <path d="M56.9417476,23.5135135 L56.9417476,20.2702703 L56.2602165,20.2702703 L54.8965876,22.6725272 L53.505479,20.2702703 L52.815534,20.2702703 L52.815534,23.5135135 L53.1714267,23.5135135 L53.1714267,20.9983531 L54.6353967,23.5135135 L54.8169831,23.5135135 L56.2428516,21.017615 L56.2428516,23.1643657 C56.2428516,23.237602 56.2585158,23.2976452 56.2882332,23.3438797 C56.3173838,23.3885016 56.3543813,23.4242989 56.3986292,23.4501867 C56.4423699,23.4749897 56.4899893,23.4920527 56.5404433,23.5008481 C56.5897634,23.5091158 56.6334743,23.5135135 56.6749772,23.5135135 L56.9417476,23.5135135 Z" id="Fill-26"></path>
                    <path d="M51.1048015,23.2535973 L50.0755752,22.0312279 L49.7173652,22.0312279 L49.7173652,23.5129855 L49.0194175,23.5129855 L49.0194175,20.2703254 L50.3007418,20.2703254 C50.3007418,20.2703254 50.8296577,20.2625868 51.1760908,20.4305193 C51.5225538,20.5990088 51.669078,20.834683 51.669078,21.1347866 C51.669078,21.4343625 51.4837856,21.7878445 50.8217964,21.9656847 L52.1553398,23.5135135 L51.6208045,23.5135132 C51.6208045,23.5135132 51.5085052,23.5140701 51.3776736,23.471127 C51.2462741,23.4281545 51.1048015,23.2535973 51.1048015,23.2535973 Z M49.7156614,20.5555381 L49.7156614,21.7839752 L50.0390787,21.7839752 C50.0390787,21.7839752 50.3596863,21.7884014 50.5679945,21.6727628 C50.7757647,21.5571241 50.9234248,21.395787 50.9234248,21.1551589 C50.9234248,20.9145309 50.7645258,20.7008998 50.5393592,20.617212 C50.5393592,20.617212 50.4107994,20.5555381 50.1817171,20.5555381 L49.7156614,20.5555381 Z" id="Fill-34"></path>
                    <path d="M46.7521079,20.2702703 L46.5447454,20.2702703 L44.7281553,23.5135135 L45.141728,23.5135135 L46.4854903,21.1144932 L47.0665481,22.1812152 L46.1340537,22.1812152 L45.9540443,22.5044382 L47.244283,22.5044382 L47.6527307,23.261933 C47.6988551,23.3497223 47.7563817,23.4149119 47.8241884,23.4548057 C47.8919648,23.495187 47.9808475,23.5135135 48.0885013,23.5135135 L48.5242718,23.5135135 L46.7521079,20.2702703 Z" id="Fill-32"></path>
                    <path d="M43.3660836,20.2702703 L43.3660836,21.7110146 L41.6333758,21.7110146 L41.6333758,20.2702703 L40.9320388,20.2702703 L40.9320388,23.5135135 L41.6333758,23.5135135 L41.6333758,22.0017904 L43.3660836,22.0017904 L43.3655129,23.1648934 C43.3655129,23.2381297 43.3802004,23.29873 43.4100861,23.3449937 C43.4394011,23.3901728 43.4772462,23.425413 43.5217894,23.4513008 C43.5646806,23.4755174 43.6126178,23.4925805 43.6639791,23.5014052 C43.7147396,23.5096729 43.7587722,23.5135135 43.79884,23.5135135 L44.0679612,23.5135135 L44.0679612,20.2702703 L43.3660836,20.2702703 Z" id="Fill-24"></path>
                    <polygon id="Fill-38" points="39.4416995 24 39.3444952 24 39.6555545 23.3185304 39.2815534 22.5405405 39.3803102 22.5405405 39.7031353 23.2152567 40.0101093 22.5405405 40.1067961 22.5405405"></polygon>
                    <path d="M38.1262136,22.0540541 L38.2229085,22.0540541 L38.2229085,22.6811894 C38.317555,22.5841446 38.4038967,22.5272978 38.5489529,22.5272978 C38.7860811,22.5272978 38.9514563,22.7175995 38.9514563,22.9895305 C38.9514563,23.3088826 38.7522808,23.5135135 38.4460017,23.5135135 C38.3373203,23.5135135 38.2489301,23.4925483 38.1262136,23.4418384 L38.1262136,22.0540541 Z M38.2229085,23.3701045 C38.3035199,23.4015523 38.3737227,23.4142371 38.4439255,23.4142371 C38.6795035,23.4142371 38.8484774,23.2388518 38.8484774,22.9961371 C38.8484774,22.7722148 38.7179545,22.6116871 38.5369941,22.6116871 C38.4241879,22.6116871 38.33159,22.6668602 38.2229085,22.7953822 L38.2229085,23.3701045 Z" id="Fill-36"></path>
                    <path d="M24.6604907,0.43813893 L30.1059084,0.43813893 L30.1059084,6.82785479 L30.6839366,6.82785479 L37.5519912,0.43813893 L44.9571098,0.43813893 L35.343883,8.94182006 L46.0870086,17.8287301 L38.5314991,17.8287301 L30.6819405,11.1507859 L30.1059084,11.1507859 L30.1059084,17.8287301 L24.6604907,17.8287301 L24.6604907,0.43813893 Z M8.53769872,11.0072967 L14.6605314,11.0072967 L11.5554695,4.47412073 L8.53769872,11.0072967 Z M8.53769872,11.0072967 L14.6605314,11.0072967 L11.5554695,4.47412073 L8.53769872,11.0072967 Z M8.53769872,11.0072967 L14.6605314,11.0072967 L11.5554695,4.47412073 L8.53769872,11.0072967 Z M8.45109281,0.43813893 L14.6820115,0.43813893 L23.262045,17.8287301 L17.9367792,17.8287301 L16.4497017,14.7530734 L6.74787293,14.7530734 L5.34737156,17.8287301 L0,17.8287301 L8.45109281,0.43813893 Z M8.45109281,0.43813893 L14.6820115,0.43813893 L23.262045,17.8287301 L17.9367792,17.8287301 L16.4497017,14.7530734 L6.74787293,14.7530734 L5.34737156,17.8287301 L0,17.8287301 L8.45109281,0.43813893 Z M8.45109281,0.43813893 L14.6820115,0.43813893 L23.262045,17.8287301 L17.9367792,17.8287301 L16.4497017,14.7530734 L6.74787293,14.7530734 L5.34737156,17.8287301 L0,17.8287301 L8.45109281,0.43813893 Z M64.5508118,5.22156676 L65.2523883,0.8711646 C63.2470159,0.468953056 60.2990781,0.0732531751 57.712311,0.011014456 C54.6992474,-0.0616894377 52.1265721,0.2442425 51.3377343,0.38049326 C49.8701409,0.634012115 48.6516103,1.10043913 47.681487,1.78105339 C46.7107083,2.46169672 45.9883071,3.3951903 45.514343,4.5822318 C45.0403492,5.76924423 44.8040375,7.28902015 44.8040375,9.14097815 C44.8040375,10.992878 45.0403492,12.5041655 45.514343,13.6748116 C45.9883071,14.8467658 46.7066863,15.7645325 47.6693914,16.4288095 C48.632156,17.093726 49.8479755,17.5489901 51.3142283,17.7940206 C52.7811662,18.0396615 54.6320958,18.1621622 56.6180139,18.1621622 C60.4400548,18.1621622 64.7126132,17.1173017 65.5242718,16.7851487 L65.5242718,8.71975487 L57.2987655,8.71975487 L57.2987655,11.9899184 L60.874425,11.9899184 L60.874425,13.4114671 C60.4111861,13.5247817 58.4931049,13.8353066 56.6233467,13.8844348 C50.2709353,14.049523 49.8251547,11.630963 49.8251547,9.06562889 C49.8251547,6.78724409 50.6341618,4.90453011 53.5814144,4.53243501 C56.5287266,4.16033991 60.2486995,4.36406198 64.5508118,5.22156676 Z" id="Fill-18"></path>
                </g>
            </g>
        </g>
    </g>
</svg>