<?xml version="1.0" encoding="UTF-8"?>
<svg width="53px" height="24px" viewBox="0 0 53 24" version="1.1" xmlns="http://www.w3.org/2000/svg" xmlns:xlink="http://www.w3.org/1999/xlink">
    <!-- Generator: Sketch 51 (57462) - http://www.bohemiancoding.com/sketch -->
    <title>footer-logo-lexicon</title>
    <desc>Created with Sketch.</desc>
    <defs></defs>
    <g id="Symbols" stroke="none" stroke-width="1" fill="none" fill-rule="evenodd">
        <g id="Support-/-Static-/-Support-Footer-/-Desktop" transform="translate(-1239.000000, -513.000000)" fill="#E7EEF0">
            <g id="Logo-group" transform="translate(260.000000, 492.000000)">
                <g id="footer-logo-lexicon" transform="translate(979.000000, 21.000000)">
                    <path d="M33.701087,11.5509802 C33.6689702,11.7777076 33.6353014,11.9948736 33.5140776,12.1974263 C32.2092504,14.3926798 28.6485106,14.2450573 27.1162794,12.1314249 C26.4061094,11.153462 26.1833816,10.0631225 26.1227697,8.90680088 C26.0041527,6.66215274 27.438979,4.47543488 29.8109218,4.25677857 C31.1794452,4.13031135 33.0214816,4.25828828 33.701087,5.59399435 L33.701087,8.3349112 C32.7883666,7.659258 31.8621747,6.94177809 30.5884295,7.2042934 C29.8642507,7.35292239 29.3840716,7.81797108 29.2442225,8.5289089 C29.0250963,9.64795226 29.4529614,10.8309841 30.6842623,11.0894541 C31.9984022,11.365073 32.8696733,10.448563 33.701087,9.67013338 L33.701087,11.5509802 Z" id="Fill-1"></path>
                    <path d="M49.5830622,8.6839906 L49.5804739,13.40625 L52.7119565,13.40625 L52.7119565,7.00670748 C52.6881044,6.8187032 52.6585579,6.63021227 52.6259255,6.44119576 C52.3838797,5.0633802 50.7999805,4.54651444 49.5130786,4.71980229 C48.5905095,4.84446365 47.766455,5.22755788 47.1621271,6.01097392 C47.1128698,6.07585467 47.0045595,5.99882703 46.9962769,5.92635448 L47.0092383,4.87284532 L43.9746377,4.87284532 L43.9746377,13.40625 L47.101999,13.40625 L47.101999,8.69261412 C47.2056504,7.87982363 48.0437414,7.31277408 48.9201392,7.57525592 C49.2907238,7.68370196 49.5239693,8.00497164 49.5540334,8.32929751 C49.5638689,8.44735983 49.5737244,8.56542216 49.5830622,8.6839906" id="Fill-3"></path>
                    <path d="M25.2518116,4.78125 C24.1877362,4.93528379 23.0513744,4.93528379 21.9873188,4.78125 L21.9873188,13.40625 L25.2518116,13.40625 L25.2518116,4.78125 Z" id="Fill-5"></path>
                    <polygon id="Fill-7" points="0 0 3.05664949 0 3.05664949 14.4773098 52.807971 14.4773098 52.807971 17.53125 0 17.53125"></polygon>
                    <path d="M12.2416198,9.97602783 C12.4745315,8.35703738 12.6065273,6.28323725 11.1519679,5.17659194 C9.33351499,3.79356677 6.66822452,3.89714613 5.09978432,5.55961817 C3.7363374,7.00178995 3.73220134,9.1079101 4.27052496,10.984626 C4.61063603,12.1690917 5.56721832,13.1630149 6.72724286,13.522301 C8.18593838,13.9725295 9.70468626,13.8381054 11.0872624,13.0998501 C12.1308212,12.543014 11.976077,11.3378363 11.9817641,10.4065732 L11.7291266,10.3282481 C10.8036244,11.3065257 9.36097602,11.8264801 8.08345169,11.4232466 C7.50784391,11.2423515 6.913087,10.6354727 6.90841405,9.97602783 L7.56270631,9.97602783 L12.2416198,9.97602783 Z M6.83078346,7.7304366 C6.83078346,7.18268502 7.9260827,6.6041081 8.58194587,6.6041081 C9.25848932,6.6041081 10.2057456,7.20642519 10.2057456,7.7304366 L7.41776538,7.7304366 L6.83078346,7.7304366 Z" id="Fill-9"></path>
                    <polygon id="Fill-11" points="16.9457818 6.99296421 18.2087977 4.6875 21.5072464 4.6875 18.7413281 9.04662146 21.5072464 13.40625 17.9165916 13.40625 16.8012211 11.4125069 15.6842983 13.40625 12.3858696 13.40625 14.8108641 9.04662146 12.3858696 4.6875 15.6842983 4.6875"></polygon>
                    <path d="M39.7334468,4.26009972 C39.45757,4.23489073 39.1734021,4.22076517 38.8856353,4.21875 C38.5967948,4.22076517 38.3126467,4.23489073 38.0372869,4.26009972 C35.5280511,4.48304716 34.5539426,6.53346223 34.5653157,8.78258458 C34.5751777,10.6831796 34.9995805,12.8596977 37.1739666,13.5270093 C37.728802,13.6990156 38.3152315,13.7751851 38.8856353,13.78125 C39.4554823,13.7751851 40.0418919,13.6990156 40.597801,13.5270093 C42.7721871,12.8596977 43.1960531,10.6831796 43.206432,8.78258458 C43.2172881,6.53346223 42.2442335,4.48304716 39.7334468,4.26009972 M38.8856353,11.1472497 C38.0093314,11.1321166 37.3706692,10.3331215 37.3706692,8.92583597 C37.3706692,8.07239253 37.9161795,7.16043168 38.8856353,7.16043168 C39.8555682,7.16043168 40.4000645,8.07239253 40.4000645,8.92583597 C40.4000645,10.3331215 39.7608655,11.1321166 38.8856353,11.1472497" id="Fill-13"></path>
                    <path d="M23.6675824,4.125 C22.6871256,4.125 21.8913043,3.6004988 21.8913043,2.95387481 C21.8913043,2.30675095 22.6871256,1.78125 23.6675824,1.78125 C24.6479996,1.78125 25.4438406,2.30675095 25.4438406,2.95387481 C25.4438406,3.6004988 24.6479996,4.125 23.6675824,4.125" id="Fill-15"></path>
                    <path d="M21.7671718,18.9375 L21.7671718,20.9359355 L19.3265563,20.9359355 L19.3265563,18.9375 L18.3387681,18.9375 L18.3387681,23.4375 L19.3265563,23.4375 L19.3265563,21.3396501 L21.7671718,21.3396501 L21.7661431,22.9539683 C21.7661431,23.0548874 21.7872327,23.1387358 21.8289766,23.2035076 C21.870681,23.2657911 21.9232071,23.3149775 21.9865352,23.3506232 C22.0473112,23.3842629 22.114794,23.4078724 22.1868666,23.4204101 C22.2579499,23.4319834 22.3197745,23.4375 22.3769103,23.4375 L22.7554348,23.4375 L22.7554348,18.9375 L21.7671718,18.9375 Z" id="Fill-20"></path>
                    <path d="M41.2862319,23.4375 L41.2862319,18.9375 L40.3184953,18.9375 L38.3830419,22.2705947 L36.4089479,18.9375 L35.4293478,18.9375 L35.4293478,23.4375 L35.9340911,23.4375 L35.9340911,19.9477596 L38.012362,23.4375 L38.2701307,23.4375 L40.2937384,19.9748606 L40.2937384,22.9529612 C40.2937384,23.0544018 40.3164355,23.138251 40.3587203,23.2025025 C40.3999355,23.2643044 40.4525587,23.314012 40.5154412,23.3496388 C40.5767987,23.3842817 40.6448504,23.4078914 40.7165067,23.4194262 C40.7866182,23.4309996 40.8490254,23.4375 40.9072733,23.4375 L41.2862319,23.4375 Z" id="Fill-22"></path>
                    <path d="M47.6231884,23.4369992 L45.1127482,18.84375 L44.8180659,18.84375 L42.2463768,23.4375 L42.8336905,23.4375 L43.6324596,22.0083894 L45.4561321,22.0083894 L45.2038373,21.5500623 L43.8889368,21.5500623 L44.7342961,20.0397 L46.3925604,23.079996 C46.4580118,23.2043394 46.5396703,23.2966096 46.6349419,23.3532624 C46.7312188,23.4109362 46.8573964,23.4369992 47.0102371,23.4369992 L47.6231884,23.4369992 Z" id="Fill-24"></path>
                    <path d="M52.7375835,18.9375 C52.7106598,18.9375 52.681171,18.9395252 52.6459753,18.9445401 C52.6102428,18.9510594 52.5765782,18.9626322 52.5455185,18.9802035 C52.5123909,18.9987778 52.4844729,19.0243729 52.4642702,19.0560244 C52.4419995,19.0896626 52.4306256,19.132829 52.4306256,19.1840385 L52.4306256,22.0846558 L49.1245394,18.9375 L48.4873188,18.9375 L48.4873188,23.4373 L49.066556,23.4373 L49.066556,20.0446279 L52.4212997,23.3253335 C52.5579464,23.4473297 52.7468696,23.4373 52.9311597,23.4373 L53,23.4373 L53,18.9375 L52.7375835,18.9375 Z" id="Fill-26"></path>
                    <path d="M26.6783005,18.84375 L26.3844637,18.84375 L23.8115942,23.4369799 L24.3976811,23.4369799 L26.3007915,20.0397092 L27.1237555,21.5500589 L25.8030766,21.5500589 L25.5479025,22.0083821 L27.3757562,22.0083821 L27.95399,23.0804613 C28.0193451,23.205343 28.1009084,23.2970924 28.1960489,23.353764 C28.2922739,23.411418 28.4182441,23.4375 28.5709468,23.4375 L29.1884058,23.4375 L26.6783005,18.84375 Z" id="Fill-28"></path>
                    <path d="M33.0531663,23.0764982 L31.5719286,21.3805538 L31.0572717,21.3805538 L31.0572717,23.4364777 L30.0525362,23.4364777 L30.0525362,18.9375724 L31.8965559,18.9375724 C31.8965559,18.9375724 32.6573181,18.9270421 33.1557839,19.1599825 C33.6542095,19.3929422 33.8652172,19.7207907 33.8652172,20.1364885 C33.8652172,20.5526877 33.5987372,21.0431779 32.6463162,21.2896959 L34.5652174,23.4375 L33.7955853,23.4374999 C33.7955853,23.4374999 33.6337744,23.437982 33.4453136,23.3782522 C33.2568126,23.3185032 33.0531663,23.0764982 33.0531663,23.0764982 Z M31.054657,19.3331931 L31.054657,21.0376813 L31.5195941,21.0376813 C31.5195941,21.0376813 31.9808504,21.0436986 32.2803563,20.8830434 C32.5798219,20.7223689 32.7923985,20.4989559 32.7923985,20.1651094 C32.7923985,19.8312243 32.5630676,19.5350246 32.2400293,19.4185544 C32.2400293,19.4185544 32.0546659,19.3331931 31.7248293,19.3331931 L31.054657,19.3331931 Z" id="Fill-30"></path>
                    <polygon id="Fill-34" points="16.1809444 24 16.0341123 24 16.5041175 23.0810576 15.9384058 22.03125 16.0882215 22.03125 16.5757819 22.9417446 17.0398006 22.03125 17.1865942 22.03125"></polygon>
                    <path d="M14.4021739,21.375 L14.5485092,21.375 L14.5485092,22.2615903 C14.69126,22.1243185 14.8222978,22.0433957 15.0415559,22.0433957 C15.4010184,22.0433957 15.6503623,22.3122925 15.6503623,22.6969171 C15.6503623,23.1476494 15.3490147,23.4375 14.8860342,23.4375 C14.7218551,23.4375 14.5877422,23.407299 14.4021739,23.335584 L14.4021739,21.375 Z M14.5485092,23.2341796 C14.670341,23.2792548 14.7764052,23.2971786 14.8829982,23.2971786 C15.2393856,23.2971786 15.49535,23.0492946 15.49535,22.7061446 C15.49535,22.3896149 15.2975202,22.1627239 15.0231831,22.1627239 C14.8528928,22.1627239 14.7126687,22.2405578 14.5485092,22.4223933 L14.5485092,23.2341796 Z" id="Fill-32"></path>
                </g>
            </g>
        </g>
    </g>
</svg>