<?xml version="1.0" encoding="UTF-8"?>
<svg width="56px" height="24px" viewBox="0 0 56 24" version="1.1" xmlns="http://www.w3.org/2000/svg" xmlns:xlink="http://www.w3.org/1999/xlink">
    <!-- Generator: Sketch 51 (57462) - http://www.bohemiancoding.com/sketch -->
    <title>footer-logo-marklevinson</title>
    <desc>Created with Sketch.</desc>
    <defs>
        <polygon id="path-1" points="0 24 56 24 56 0 0 0"></polygon>
    </defs>
    <g id="Symbols" stroke="none" stroke-width="1" fill="none" fill-rule="evenodd">
        <g id="Support-/-Static-/-Support-Footer-/-Desktop" transform="translate(-1412.000000, -513.000000)">
            <g id="Logo-group" transform="translate(260.000000, 492.000000)">
                <g id="footer-logo-marklevinson" transform="translate(1152.000000, 21.000000)">
                    <path d="M55.2483529,17.2903226 L54.8085106,17.2903226 L54.8085106,18.1935484 L54.9993103,18.1935484 L54.9993103,17.813012 L55.151905,17.813012 L55.3537943,18.1935484 L55.5729941,18.1935484 L55.3537943,17.813012 C55.5133312,17.8018254 55.6028369,17.7320536 55.6028369,17.5681263 C55.6028369,17.3561587 55.4876809,17.2903226 55.2483529,17.2903226 M55.2504266,17.676741 L54.9993103,17.676741 L54.9993103,17.4318553 L55.2046257,17.4318553 C55.2948075,17.4318553 55.425223,17.422658 55.425223,17.5437853 C55.425223,17.6550309 55.3537943,17.6774255 55.2504266,17.676741" id="Fill-1" fill="#E7EEF0"></path>
                    <path d="M55.2063524,16.9032258 C54.7644639,16.9032258 54.4113475,17.2784103 54.4113475,17.7396351 C54.4113475,18.2048157 54.7644639,18.5806452 55.2063524,18.5806452 C55.6423454,18.5806452 56,18.2048157 56,17.7396351 C56,17.2784103 55.6423454,16.9032258 55.2063524,16.9032258 M55.2063524,18.3808306 C54.860404,18.3808306 54.6208506,18.1174855 54.6208506,17.7396351 C54.6208506,17.3664285 54.860404,17.1004175 55.2063524,17.1004175 C55.5464053,17.1004175 55.7911755,17.3664285 55.7911755,17.7396351 C55.7911755,18.1174855 55.5464053,18.3808306 55.2063524,18.3808306" id="Fill-3" fill="#E7EEF0"></path>
                    <path d="M16.615063,10.5806452 C17.6504767,10.5806452 18.4018913,9.81169119 18.4018913,8.75502138 L18.4018913,5.30756644 C18.4018913,4.25154638 17.6504767,3.48387097 16.615063,3.48387097 L13.172171,3.48387097 C12.1367573,3.48387097 11.3853428,4.25154638 11.3853428,5.30756644 L11.3853428,5.68819729 L12.2360374,5.68819729 L12.2360374,5.30756644 C12.2360374,4.73731184 12.6120757,4.35282437 13.172171,4.35282437 L16.615063,4.35282437 C17.1751797,4.35282437 17.5505345,4.73731184 17.5505345,5.30756644 L17.5505345,6.50812561 C17.1409827,6.50812561 13.172171,6.51005392 13.172171,6.51005392 C12.1367573,6.51005392 11.3853428,7.27707958 11.3853428,8.3350489 L11.3853428,8.75502138 C11.3853428,9.81169119 12.1367573,10.5806452 13.172171,10.5806452 L16.615063,10.5806452 Z M16.615063,9.71106296 L13.172171,9.71106296 C12.6120757,9.71106296 12.2360374,9.3265755 12.2360374,8.75502138 L12.2360374,8.3350489 C12.2360374,7.76414454 12.6120757,7.37965708 13.172171,7.37965708 C13.172171,7.37965708 16.6301644,7.37900732 17.5505345,7.37772877 L17.5505345,8.75502138 C17.5505345,9.3265755 17.1751797,9.71106296 16.615063,9.71106296 Z" id="Fill-5" fill="#E7EEF0"></path>
                    <path d="M20.0416187,5.30737056 C20.0416187,4.77410587 20.4505749,4.35305009 20.9706323,4.35305009 L25.4184397,4.35305009 L25.4184397,3.48387097 L20.9706323,3.48387097 C19.9756244,3.48387097 19.1962175,4.28536021 19.1962175,5.30737056 L19.1962175,10.4516129 L20.0416187,10.4516129 L20.0416187,5.30737056 Z" id="Fill-7" fill="#E7EEF0"></path>
                    <path d="M27.3308709,4.35343514 L31.7372993,4.35343514 C32.2698771,4.35343514 32.6407818,4.74739847 32.6407818,5.30769535 L32.6407818,10.4516129 L33.4940898,10.4516129 L33.4940898,5.30769535 C33.4940898,4.26769166 32.7397583,3.48431089 31.7372993,3.48431089 L28.8837046,3.48431089 C30.1705925,2.8704898 32.8691397,1.61060739 32.8691397,1.61060739 L32.5054824,0.824649922 L32.2995958,0.922019993 L27.3308709,3.265731 L27.3308709,0 L26.4775414,0 L26.4775414,10.4516129 L27.3308709,10.4516129 L27.3308709,4.35343514 Z" id="Fill-9" fill="#E7EEF0"></path>
                    <path d="M0.852525054,5.28158094 C0.852525054,4.82375768 1.22841635,4.35179308 1.8590941,4.35179308 L4.8030412,4.35179308 L4.80239953,10.4516129 L5.65492458,10.4516129 L5.65492458,4.35179308 L8.82666514,4.35179308 C9.2585316,4.35179308 9.60546212,4.86052517 9.60546212,5.28158094 L9.60612518,10.4516129 L10.4586288,10.4516129 L10.4573241,5.28158094 C10.4573241,4.34081521 9.67985326,3.48387097 8.82666514,3.48387097 L1.8590941,3.48387097 C0.816976441,3.48387097 0.000663060783,4.27310438 0.000663060783,5.28158094 L0,10.4516129 L0.851198933,10.4516129 L0.852525054,5.28158094 Z" id="Fill-12" fill="#E7EEF0"></path>
                    <path d="M24.2811642,12.3516811 L28.6674665,12.3516811 C29.2259247,12.3516811 29.6006538,12.7355879 29.6006538,13.3085446 L29.6006538,18.4516129 L30.4491726,18.4516129 L30.4491726,13.3085446 C30.4491726,12.2503848 29.7003968,11.483871 28.6674665,11.483871 L23.4326241,11.483871 L23.4326241,18.4516129 L24.2811642,18.4516129 L24.2811642,12.3516811 Z" id="Fill-14" fill="#E7EEF0"></path>
                    <path d="M47.8461786,12.3516811 L52.2311509,12.3516811 C52.7902932,12.3516811 53.166324,12.7355879 53.166324,13.3085446 L53.166324,18.4516129 L54.0141844,18.4516129 L54.0141844,13.3085446 C54.0141844,12.2503848 53.2654276,11.483871 52.2311509,11.483871 L46.9976359,11.483871 L46.9976359,18.4516129 L47.8461786,18.4516129 L47.8461786,12.3516811 Z" id="Fill-16" fill="#E7EEF0"></path>
                    <mask id="mask-2" fill="white">
                        <use xlink:href="#path-1"></use>
                    </mask>
                    <g id="Clip-19"></g>
                    <polygon id="Fill-18" fill="#E7EEF0" mask="url(#mask-2)" points="21.7115839 18.4516129 22.5059102 18.4516129 22.5059102 11.483871 21.7115839 11.483871"></polygon>
                    <path d="M40.7308652,18.5806452 L44.262724,18.5806452 C45.2936498,18.5806452 46.070922,17.7820852 46.070922,16.7261408 L46.070922,13.3074204 C46.070922,12.2675928 45.3060855,11.483871 44.2908959,11.483871 L40.7308652,11.483871 C39.6998968,11.483871 38.9219858,12.2675928 38.9219858,13.3074204 L38.9219858,16.7261408 C38.9219858,17.7820852 39.6998968,18.5806452 40.7308652,18.5806452 Z M39.7700604,13.3074204 C39.7700604,12.7442809 40.165255,12.3514454 40.7308652,12.3514454 L44.2908959,12.3514454 C44.8401098,12.3514454 45.2235288,12.7442809 45.2235288,13.3074204 L45.2235288,16.7261408 C45.2235288,17.2867026 44.8112778,17.7111426 44.262724,17.7111426 L40.7308652,17.7111426 C40.182929,17.7111426 39.7700604,17.2867026 39.7700604,16.7261408 L39.7700604,13.3074204 Z" id="Fill-20" fill="#E7EEF0" mask="url(#mask-2)"></path>
                    <path d="M36.3510361,17.7116148 L31.5437472,17.7116148 L31.5437472,18.5806452 L36.3510361,18.5806452 C37.3799823,18.5806452 38.1276596,17.8128285 38.1276596,16.7555306 L38.1276596,16.3835408 C38.1276596,15.3256145 37.3799823,14.5597039 36.3510361,14.5597039 L33.0227577,14.5597039 C32.4641092,14.5597039 32.0892823,14.1741618 32.0892823,13.6010433 L32.0892823,13.3102843 C32.0892823,12.7364955 32.4641092,12.3516236 33.0227577,12.3516236 L37.8326609,12.3516236 L37.8326609,11.483871 L33.0227577,11.483871 C31.9924725,11.483871 31.2434988,12.2510592 31.2434988,13.3102843 L31.2434988,13.6010433 C31.2434988,14.6596399 31.9924725,15.4287553 33.0227577,15.4287553 L36.3510361,15.4287553 C36.9083457,15.4287553 37.2818336,15.8117001 37.2818336,16.3835408 L37.2818336,16.7555306 C37.2818336,17.3254233 36.9083457,17.7116148 36.3510361,17.7116148" id="Fill-21" fill="#E7EEF0" mask="url(#mask-2)"></path>
                    <path d="M8.02338086,17.71114 C7.44110111,17.71114 7.07969724,17.3460308 7.07969724,16.7545334 L7.07969724,15.6502149 L13.3711584,15.6502149 L13.3711584,13.3074049 C13.3711584,12.2501999 12.6124753,11.483871 11.5686639,11.483871 L8.02338086,11.483871 C6.97954788,11.483871 6.22222222,12.2501999 6.22222222,13.3074049 L6.22222222,16.7545334 C6.22222222,17.8304748 6.96295687,18.5806452 8.02338086,18.5806452 L13.2703411,18.5806452 L13.2703411,17.71114 L8.02338086,17.71114 Z M7.07969724,13.3074049 C7.07969724,12.734602 7.45900647,12.3507983 8.02338086,12.3507983 L11.5686639,12.3507983 C12.1336846,12.3507983 12.5130154,12.734602 12.5130154,13.3074049 L12.5130154,14.7813385 L7.07969724,14.7813385 L7.07969724,13.3074049 Z" id="Fill-22" fill="#E7EEF0" mask="url(#mask-2)"></path>
                    <path d="M0.843834878,16.6249896 C0.843834878,17.1611552 1.25108244,17.5805534 1.76960122,17.5805534 L5.42789598,17.5805534 L5.42789598,18.4516129 L1.76960122,18.4516129 C0.779405802,18.4516129 0.00325527483,17.6483079 0.00325527483,16.6249896 L0,11.483871 L0.841213747,11.483871 L0.843834878,16.6249896 Z" id="Fill-23" fill="#E7EEF0" mask="url(#mask-2)"></path>
                    <path d="M20.0767505,11.483871 C19.504922,12.528856 17.9785227,15.5343336 17.2058315,16.9434636 C16.4337781,15.5343336 14.905423,12.5295017 14.3322766,11.483871 L13.3711584,11.483871 L17.2071282,18.7096774 L21.0496454,11.483871 L20.0767505,11.483871 Z" id="Fill-24" fill="#E7EEF0" mask="url(#mask-2)"></path>
                    <path d="M44.205353,4.37953236 C43.1085351,3.69531297 41.1937666,2.50091256 40.7006163,2.19354839 L40.7006163,4.37953236 L34.1560284,4.37953236 L34.1560284,5.23913683 L36.126707,5.23913683 L36.126707,10.0645161 L52.12616,10.0645161 C53.1618121,10.0645161 53.9127218,9.30693129 53.9127218,8.26112649 L53.9127218,5.23913683 L55.8676123,5.23913683 L55.8676123,4.37953236 L44.205353,4.37953236 Z M53.0625325,8.26112649 C53.0625325,8.82739345 52.686394,9.20617551 52.12616,9.20617551 L36.9775799,9.20617551 L36.9775799,5.23913683 L40.7006163,5.23913683 L40.7006163,7.42130852 C41.0576338,7.20067346 43.0677722,5.94761799 44.2040284,5.23913683 L53.0625325,5.23913683 L53.0625325,8.26112649 Z" id="Fill-25" fill="#E7EEF0" mask="url(#mask-2)"></path>
                    <path d="M29.5165964,19.8709677 L29.5165964,21.4755541 L27.5418525,21.4755541 L27.5418525,19.8709677 L26.7423168,19.8709677 L26.7423168,23.483871 L27.5418525,23.483871 L27.5418525,21.7994226 L29.5165964,21.7994226 L29.515922,23.0954778 C29.515922,23.1766058 29.5326528,23.2443266 29.5668108,23.2960667 C29.6002943,23.3458974 29.6431549,23.3861189 29.6940438,23.4142408 C29.7435837,23.4417193 29.7978231,23.4602112 29.8560874,23.4704638 C29.9136773,23.4793881 29.9639135,23.483871 30.0101029,23.483871 L30.3167849,23.483871 L30.3167849,19.8709677 L29.5165964,19.8709677 Z" id="Fill-26" fill="#E7EEF0" mask="url(#mask-2)"></path>
                    <path d="M44.8794326,23.483871 L44.8794326,19.8709677 L44.1139176,19.8709677 L42.5823127,22.5468157 L41.0205343,19.8709677 L40.2458629,19.8709677 L40.2458629,23.483871 L40.6449528,23.483871 L40.6449528,20.6822314 L42.2893301,23.483871 L42.4931552,23.483871 L44.0942421,20.7032762 L44.0942421,23.0948737 C44.0942421,23.1760021 44.1125974,23.2437026 44.1453687,23.295443 C44.1781613,23.3446306 44.2200889,23.3848523 44.2698953,23.4136178 C44.3184027,23.4410757 44.3721272,23.4602526 44.4291735,23.4698411 C44.4842182,23.4787654 44.5333858,23.483871 44.5792528,23.483871 L44.8794326,23.483871 Z" id="Fill-27" fill="#E7EEF0" mask="url(#mask-2)"></path>
                    <path d="M49.9101655,23.6129032 L47.932092,19.8709677 L47.7001678,19.8709677 L45.6737589,23.6129032 L46.1363155,23.6129032 L46.7657965,22.449111 L48.2024694,22.449111 L48.0043261,22.0756072 L46.9679443,22.0756072 L47.6338761,20.8451479 L48.9406783,23.3216292 C48.9916835,23.4232491 49.0559945,23.4983495 49.1315012,23.5443014 C49.2076969,23.5915572 49.3064563,23.6129032 49.4270905,23.6129032 L49.9101655,23.6129032 Z" id="Fill-28" fill="#E7EEF0" mask="url(#mask-2)"></path>
                    <path d="M53.9384207,19.8709677 C53.9173166,19.8709677 53.8935798,19.8722544 53.8659262,19.8767164 C53.8376305,19.8818424 53.8112396,19.8914096 53.7862401,19.9048369 C53.7598493,19.9201527 53.7381459,19.9405945 53.721665,19.9661417 C53.7038785,19.9929755 53.695317,20.0281106 53.695317,20.0689942 L53.695317,22.3978499 L51.0766973,19.8709677 L50.572104,19.8709677 L50.572104,23.4836959 L51.0306364,23.4836959 L51.0306364,20.7601155 L53.6880825,23.3942706 C53.7961286,23.4919972 53.9456552,23.4836959 54.0912434,23.4836959 L54.1465721,23.4836959 L54.1465721,19.8709677 L53.9384207,19.8709677 Z" id="Fill-29" fill="#E7EEF0" mask="url(#mask-2)"></path>
                    <path d="M33.3696577,19.8709677 L33.1379854,19.8709677 L31.1111111,23.6122724 L31.572477,23.6122724 L33.0717872,20.8449572 L33.7204781,22.0752232 L32.67991,22.0752232 L32.4786915,22.4486409 L33.9190513,22.4486409 L34.3751265,23.3223318 C34.4260978,23.423934 34.4903174,23.4983694 34.5657636,23.5449651 C34.6419195,23.5915398 34.7405286,23.6129032 34.8610103,23.6129032 L35.3475177,23.6129032 L33.3696577,19.8709677 Z" id="Fill-30" fill="#E7EEF0" mask="url(#mask-2)"></path>
                    <path d="M38.3864448,23.1939108 L37.2129115,21.8323202 L36.8051128,21.8323202 L36.8051128,23.4832066 L36.0094563,23.4832066 L36.0094563,19.8710354 L37.4701699,19.8710354 C37.4701699,19.8710354 38.0732183,19.8621129 38.4677015,20.0492152 C38.862228,20.2370022 39.0294828,20.4994682 39.0294828,20.8334801 C39.0294828,21.167492 38.8189257,21.5615334 38.0639083,21.7595294 L39.5839243,23.483871 L38.974857,23.4838706 C38.974857,23.4838706 38.8462061,23.4844931 38.6969434,23.435959 C38.547659,23.3880473 38.3864448,23.1939108 38.3864448,23.1939108 Z M36.8031209,20.1884473 L36.8031209,21.5570722 L37.1716012,21.5570722 C37.1716012,21.5570722 37.5367904,21.5621767 37.7740432,21.4331743 C38.011924,21.3041718 38.1798283,21.1247056 38.1798283,20.8564918 C38.1798283,20.5882572 37.9985869,20.3506704 37.7420213,20.2567769 C37.7420213,20.2567769 37.5954433,20.1884473 37.334201,20.1884473 L36.8031209,20.1884473 Z" id="Fill-31" fill="#E7EEF0" mask="url(#mask-2)"></path>
                    <path d="M23.6973995,21.8064516 L23.8210912,21.8064516 L23.8210912,22.5273342 C23.9427282,22.4157593 24.0538881,22.3504059 24.2401482,22.3504059 C24.5445454,22.3504059 24.7565012,22.5689228 24.7565012,22.8818343 C24.7565012,23.2488602 24.5007633,23.483871 24.108102,23.483871 C23.9684239,23.483871 23.8551414,23.4601275 23.6973995,23.4013588 L23.6973995,21.8064516 Z M23.8210912,23.3188466 C23.9246418,23.3551588 24.0149833,23.3696794 24.1053247,23.3696794 C24.4076445,23.3696794 24.6244776,23.1683213 24.6244776,22.8891053 C24.6244776,22.631638 24.4569812,22.4474602 24.2241843,22.4474602 C24.079629,22.4474602 23.9607919,22.5108403 23.8210912,22.6586845 L23.8210912,23.3188466 Z" id="Fill-32" fill="#E7EEF0" mask="url(#mask-2)"></path>
                    <polygon id="Fill-33" fill="#E7EEF0" mask="url(#mask-2)" points="25.0945774 23.8709677 24.9702097 23.8709677 25.368555 23.1479385 24.8888889 22.3225806 25.0159651 22.3225806 25.4300728 23.0388001 25.8236228 22.3225806 25.9479905 22.3225806"></polygon>
                </g>
            </g>
        </g>
    </g>
</svg>