<?xml version="1.0" encoding="UTF-8"?>
<svg width="527px" height="496px" viewBox="0 0 527 496" version="1.1" xmlns="http://www.w3.org/2000/svg" xmlns:xlink="http://www.w3.org/1999/xlink">
    <!-- Generator: Sketch 51 (57462) - http://www.bohemiancoding.com/sketch -->
    <title>logo</title>
    <desc>Created with Sketch.</desc>
    <defs></defs>
    <g id="Symbols" stroke="none" stroke-width="1" fill="none" fill-rule="evenodd">
        <g id="Static-/-logo">
            <g id="logo">
                <path d="M513.123,398.052 C505.476,398.052 499.252,391.879 499.252,384.222 C499.252,376.619 505.476,370.391 513.123,370.391 C520.77,370.391 527,376.619 527,384.222 C527,391.879 520.77,398.052 513.123,398.052 Z M513.123,373.034 C506.906,373.034 501.863,378.042 501.863,384.222 C501.863,390.449 506.906,395.464 513.123,395.464 C519.353,395.464 524.383,390.449 524.383,384.222 C524.383,378.042 519.353,373.034 513.123,373.034 Z M516.655,392.042 L512.716,385.32 L510.425,385.32 L510.425,392.042 L507.815,392.042 L507.815,376.395 L513.618,376.395 C517.482,376.395 519.557,377.689 519.557,380.983 C519.557,383.822 517.767,384.947 515.333,385.204 L519.658,392.042 L516.655,392.042 Z M516.919,380.759 C516.919,378.896 515.15,378.55 513.618,378.55 L510.425,378.55 L510.425,383.151 L513.57,383.151 C515.414,383.151 516.919,382.887 516.919,380.759 Z M0,0 L485.713,0 L485.713,397.631 L0,397.631 L0,0 Z M3.629,471.794 C5.453,469.984 7.127,468.921 9.927,468.921 C14.523,468.921 17.716,472.464 17.716,477.54 C17.716,483.483 13.859,487.298 7.947,487.298 C5.846,487.298 4.131,486.905 1.758,485.963 L1.758,460.104 L3.629,460.104 L3.629,471.794 Z M3.629,484.628 C5.181,485.218 6.544,485.448 7.907,485.448 C12.462,485.448 15.73,482.182 15.73,477.655 C15.73,473.488 13.201,470.493 9.696,470.493 C7.52,470.493 5.731,471.516 3.629,473.921 L3.629,484.628 Z M22.188,469.274 L28.533,481.634 L34.567,469.274 L36.472,469.274 L23.395,496 L21.49,496 L27.598,483.525 L20.242,469.274 L22.188,469.274 Z M63.713,454.676 L94.593,454.676 L94.593,427.794 L107.101,427.794 L107.101,488.327 L102.308,488.327 C101.589,488.327 100.803,488.253 99.908,488.097 C98.986,487.928 98.138,487.616 97.366,487.155 C96.573,486.681 95.901,486.017 95.373,485.176 C94.844,484.309 94.579,483.184 94.579,481.815 L94.593,460.104 L63.713,460.104 L63.713,488.327 L51.212,488.327 L51.212,427.794 L63.713,427.794 L63.713,454.676 Z M154.532,426.449 L185.819,488.324 L178.117,488.324 C176.219,488.324 174.653,487.978 173.453,487.199 C172.26,486.44 171.243,485.2 170.429,483.519 L163.223,469.079 L140.444,469.079 L143.617,462.906 L160.077,462.906 L149.827,442.556 L126.106,488.317 L118.805,488.317 L150.871,426.449 L154.532,426.449 Z M236.193,430.772 C242.389,433.91 245.013,438.321 245.013,443.912 C245.013,449.509 241.705,456.109 229.848,459.429 L253.731,488.317016 L244.152,488.317 C244.152,488.317 242.138,488.331 239.793,487.524 C237.447,486.718 234.912,483.465 234.912,483.465 L216.479,460.649 L210.072,460.649 L210.072,488.31 L197.571,488.31 L197.571,427.784 L220.519,427.784 C220.519,427.784 229.99,427.635 236.193,430.772 Z M210.038,433.103 L210.038,456.035 L215.821,456.035 C215.821,456.035 221.563,456.123 225.292,453.961 C229.027,451.799 231.665,448.791 231.665,444.298 C231.665,439.805 228.817,435.821 224.79,434.249 C224.79,434.249 222.485,433.103 218.377,433.103 L210.038,433.103 Z M302.264,472.624 L326.73,427.792 L338.961,427.792 L338.961,488.325 L334.168,488.325 C333.435,488.325 332.649,488.237 331.761,488.088 C330.852,487.925 329.998,487.607 329.218,487.146 C328.425,486.665 327.754,485.994 327.239,485.161 C326.703,484.3 326.419,483.175 326.419,481.806 L326.419,441.744 L300.84,488.325 L297.579,488.325 L271.316,441.378 L271.316,488.325 L264.937,488.325 L264.937,427.792 L277.316,427.792 L302.264,472.624 Z M386.116,426.447 L417.369,488.322 L409.735,488.322 C407.837,488.322 406.264,487.97 405.064,487.19 C403.878,486.431 402.861,485.191 402.048,483.511 L381.404,442.561 L370.876,462.904 L387.255,462.904 L390.394,469.077 L367.69,469.077 L357.745,488.329 L350.436,488.329 L382.449,426.447 L386.116,426.447 Z M478.541,470.129 L478.541,431.104 C478.541,430.42 478.683,429.837 478.961,429.383 C479.219,428.963 479.571,428.617 479.991,428.36 C480.378,428.129 480.805,427.973 481.252,427.885 C481.693,427.818 482.066,427.79 482.405,427.79 L485.707,427.79 L485.707,488.324 L484.838,488.324 C482.527,488.324 480.147,488.453 478.419,486.82 L436.19,442.685 L436.19,488.324 L428.896,488.324 L428.896,427.79 L436.922,427.79 L478.541,470.129 Z" id="Back" fill="#FF3300"></path>
                <g id="JBL" transform="translate(99.000000, 115.000000)" fill="#FFFFFF">
                    <path d="M218.714,166.667 L301.883,166.667 L301.883,113.642 L274.427,113.642 L274.447,142.631 C274.447,150.404 268.115,156.733 260.305,156.733 C252.502,156.733 246.163,150.404 246.163,142.631 L246.163,0.144 L218.714,0.144 L218.714,166.667 Z" id="Path"></path>
                    <path d="M116.427,166.667 L116.427,0.144 L171.306,0.144 C181.895,0.144 198.742,8.838 198.742,27.277 L198.742,55.643 C198.742,63.937 191.468,78.635 180.661,78.635 C191.468,78.635 198.742,87.946 198.742,95 L198.742,144.915 C198.742,153.405 191.888,166.667 171.306,166.667 L116.427,166.667 Z M158.832,71.838 C168.811,71.838 171.306,70.158 171.306,44.055 C171.306,17.959 168.811,15.879 158.832,15.879 L143.843,15.879 L143.843,71.798 L158.832,71.838 Z M171.306,119.646 C171.306,93.536 171.306,85.892 160.472,85.892 L143.843,85.892 L143.843,152.985 L160.472,153.019 C171.306,153.019 171.306,145.735 171.306,119.646 Z" id="Combined-Shape"></path>
                    <path d="M12.446,137.664 C12.446,149.672 23.259,169.14 54.023,169.14 C84.795,169.14 95.615,154.246 95.615,137.664 L95.615,0.144 L68.158,0.144 L68.172,142.441 C68.172,150.214 61.853,156.733 54.044,156.733 C46.227,156.733 39.895,150.404 39.895,142.631 L39.875,113.642 L12.446,113.642 L12.446,137.664 Z" id="Path"></path>
                    <path d="M26.167,95.501 C34.926,95.501 42.044,88.406 42.044,79.685 C42.044,70.923 34.926,63.856 26.167,63.856 C17.381,63.856 10.283,70.923 10.283,79.685 C10.283,88.406 17.381,95.501 26.167,95.501 Z" id="Path"></path>
                    <polygon id="Path" points="26.167 57.716 51.529 0.144 0.799 0.144"></polygon>
                </g>
            </g>
        </g>
    </g>
</svg>