<?xml version="1.0" encoding="UTF-8"?>
<svg width="72px" height="24px" viewBox="0 0 72 24" version="1.1" xmlns="http://www.w3.org/2000/svg" xmlns:xlink="http://www.w3.org/1999/xlink">
    <!-- Generator: Sketch 51 (57462) - http://www.bohemiancoding.com/sketch -->
    <title>footer-logo-infinity</title>
    <desc>Created with Sketch.</desc>
    <defs></defs>
    <g id="Symbols" stroke="none" stroke-width="1" fill="none" fill-rule="evenodd">
        <g id="Support-/-Static-/-Support-Footer-/-Desktop" transform="translate(-904.000000, -513.000000)" fill="#E7EEF0">
            <g id="Logo-group" transform="translate(260.000000, 492.000000)">
                <g id="footer-logo-infinity" transform="translate(644.000000, 21.000000)">
                    <polygon id="Fill-1" points="19.9534884 16.1828571 21.3488372 16.1828571 21.3488372 2.33142857 19.9534884 2.33142857"></polygon>
                    <path d="M33.4883721,10.7403371 L33.4883721,16.1828571 L32.1145542,16.1828571 L32.1145542,10.7403371 C32.1145542,8.58103914 30.3244163,6.83039588 28.1172766,6.83039588 C25.9087985,6.83039588 24.1179787,8.58103914 24.1179787,10.7403371 L24.1179787,16.1828571 L22.744186,16.1828571 L22.744186,5.54609833 L24.1179787,5.54609833 L24.1179787,7.25782798 L24.1042908,7.24574623 C25.087119,6.16612194 26.5205627,5.48571429 28.1172766,5.48571429 C31.0836919,5.48571429 33.4883721,7.83891326 33.4883721,10.7403371" id="Fill-2"></path>
                    <path d="M34.6879955,6.9082371 L34.6879955,16.1828571 L36.0490918,16.1828571 L36.0490918,6.9082371 L36.0789919,6.9082371 L37.9911773,6.9082371 L37.9911773,5.56531953 L36.0789919,5.56531953 L36.0490918,5.56263133 C36.4112468,3.17348498 38.4994554,1.34091992 41.0232558,1.34091992 L41.0232558,0 C37.7363627,0 35.0284072,2.44609185 34.6723573,5.59210291 L34.7029331,5.56531953 L32.7906977,5.56531953 L32.7906977,6.9082371 L34.7029331,6.9082371 L34.6879955,6.9082371 Z" id="Fill-4"></path>
                    <polygon id="Fill-7" points="38.9302326 16.1828571 40.3255814 16.1828571 40.3255814 5.62285714 38.9302326 5.62285714"></polygon>
                    <polygon id="Fill-9" points="38.9302326 4.8 40.3255814 4.8 40.3255814 3.42857143 38.9302326 3.42857143"></polygon>
                    <path d="M52.4651163,10.7403371 L52.4651163,16.1828571 L51.0912984,16.1828571 L51.0912984,10.7403371 C51.0912984,8.58103914 49.3011605,6.83039588 47.0926823,6.83039588 C44.883497,6.83039588 43.0947229,8.58103914 43.0947229,10.7403371 L43.0947229,16.1828571 L41.7209302,16.1828571 L41.7209302,5.54609833 L43.0947229,5.54609833 L43.0947229,7.25782798 L43.081035,7.24574623 C44.0652522,6.16612194 45.4973322,5.48571429 47.0926823,5.48571429 C50.0611433,5.48571429 52.4651163,7.83891326 52.4651163,10.7403371" id="Fill-10"></path>
                    <polygon id="Fill-11" points="53.8604651 16.1828571 55.255814 16.1828571 55.255814 5.62285714 53.8604651 5.62285714"></polygon>
                    <polygon id="Fill-12" points="53.8604651 4.8 55.255814 4.8 55.255814 3.42857143 53.8604651 3.42857143"></polygon>
                    <path d="M65.4083937,15.6918645 L63.5195816,19.4321834 L64.7496105,20.0228571 L72,5.61941169 L70.4747239,5.61808318 L66.2079062,14.0929688 L66.2044842,14.0929688 L62.4843041,5.62543923 L58.0705421,5.61673006 L58.0705421,2.33142857 L56.7011175,2.33142857 L56.7011175,5.61673006 L55.9534884,5.61673006 L55.9534884,6.95639263 L56.6929148,6.95639263 L56.7024511,6.95639263 L56.7011175,6.95639263 L56.7011175,11.0047308 L56.7011175,11.000081 C56.7011175,14.3755986 59.5008077,17.1163554 62.9530914,17.1163554 C63.121876,17.1163554 63.2893018,17.109024 63.4546896,17.0943365 L63.4573819,15.7493352 C63.2920193,15.7653513 63.1232347,15.775389 62.9530914,15.775389 C60.2572686,15.775389 58.0705421,13.6359587 58.0705421,11.000081 L58.0705421,11.0047308 L58.0705421,6.95639263 L61.5624555,6.953711 L65.4083937,15.6918645 Z" id="Fill-13"></path>
                    <path d="M68.0930233,16.4554835 C68.0930233,15.8252505 68.6049549,15.36 69.2116097,15.36 C69.8128888,15.36 70.3255814,15.8252505 70.3255814,16.4554835 C70.3255814,17.0896941 69.8128888,17.5542857 69.2116097,17.5542857 C68.6049549,17.5542857 68.0930233,17.0896941 68.0930233,16.4554835 Z M69.2116097,17.3713676 C69.7102374,17.3713676 70.1035872,16.9823737 70.1035872,16.4554835 C70.1035872,15.935914 69.7102374,15.5429181 69.2116097,15.5429181 C68.7089564,15.5429181 68.3136674,15.935914 68.3136674,16.4554835 C68.3136674,16.9823737 68.7089564,17.3713676 69.2116097,17.3713676 Z M68.9776125,17.0896941 L68.7863009,17.0896941 L68.7863009,15.8252505 L69.2702746,15.8252505 C69.5702269,15.8252505 69.7189021,15.935914 69.7189021,16.1844494 C69.7189021,16.4124138 69.5775907,16.5098514 69.3889301,16.5336922 L69.7509347,17.0896941 L69.5349297,17.0896941 L69.1989685,16.5436239 L68.9776125,16.5436239 L68.9776125,17.0896941 Z M69.2089341,16.3792758 C69.3716006,16.3792758 69.5189257,16.3673431 69.5189257,16.1744933 C69.5189257,16.0174414 69.3742761,15.9882809 69.2409421,15.9882809 L68.9776125,15.9882809 L68.9776125,16.3792758 L69.2089341,16.3792758 Z" id="Fill-14"></path>
                    <path d="M25.6354254,18.5142857 L25.6354254,20.7069977 L22.7825719,20.7069977 L22.7825719,18.5142857 L21.627907,18.5142857 L21.627907,23.4514286 L22.7825719,23.4514286 L22.7825719,21.1495783 L25.6354254,21.1495783 L25.6340336,22.9205949 C25.6340336,23.0317423 25.6587829,23.1240385 25.707573,23.1947552 C25.756363,23.262793 25.8182364,23.3173621 25.8917758,23.3564287 C25.9625315,23.3934861 26.0415624,23.4190592 26.1261352,23.4332223 C26.2092656,23.4453516 26.2814132,23.4514286 26.34812,23.4514286 L26.7906977,23.4514286 L26.7906977,18.5142857 L25.6354254,18.5142857 Z" id="Fill-15"></path>
                    <path d="M47.8604651,23.4514286 L47.8604651,18.5142857 L46.7538234,18.5142857 L44.5398708,22.1708333 L42.2821969,18.5142857 L41.1627907,18.5142857 L41.1627907,23.4514286 L41.73967,23.4514286 L41.73967,19.6224417 L44.116512,23.4514286 L44.4113339,23.4514286 L46.7255433,19.6520828 L46.7255433,22.9192528 C46.7255433,23.0310953 46.751791,23.1233672 46.7995772,23.1934393 C46.8466942,23.2614774 46.9072944,23.3160468 46.9786267,23.3551136 C47.0493393,23.3928409 47.1273884,23.4191086 47.2088579,23.4319076 C47.2896334,23.4447066 47.3602965,23.4514286 47.4269443,23.4514286 L47.8604651,23.4514286 Z" id="Fill-16"></path>
                    <path d="M55.1162791,23.4514286 L52.2494843,18.3771429 L51.9130894,18.3771429 L48.9767442,23.4514286 L49.6468456,23.4514286 L50.5591926,21.8733626 L52.6418614,21.8733626 L52.3539105,21.3667346 L50.8519678,21.3667346 L51.8168545,19.6985655 L53.7104958,23.0565754 C53.7855993,23.1947354 53.8783918,23.2963353 53.9875669,23.358632 C54.098124,23.4223003 54.2421245,23.4514286 54.4161263,23.4514286 L55.1162791,23.4514286 Z" id="Fill-17"></path>
                    <path d="M61.095164,18.5142857 C61.0640452,18.5142857 61.0309098,18.5163196 60.9903557,18.5223715 C60.9497768,18.529118 60.9112392,18.5419164 60.8754152,18.5607667 C60.8375249,18.581651 60.8057587,18.6099513 60.7827806,18.6443036 C60.7571138,18.6813347 60.7435708,18.7285102 60.7435708,18.7844164 L60.7435708,21.9672506 L56.9614113,18.5142857 L56.2325581,18.5142857 L56.2325581,23.4512206 L56.8951406,23.4512206 L56.8951406,19.7288196 L60.7334137,23.3286188 C60.8896303,23.4619852 61.1059934,23.4512206 61.3162323,23.4512206 L61.3953488,23.4512206 L61.3953488,18.5142857 L61.095164,18.5142857 Z" id="Fill-18"></path>
                    <path d="M31.0406976,18.3771429 L30.7053278,18.3771429 L27.7674419,23.4507552 L28.4361232,23.4507552 L30.6091745,19.6985405 L31.5491735,21.3667097 L30.0407125,21.3667097 L29.7496421,21.8726644 L31.8368304,21.8726644 L32.4973547,23.0572488 C32.5723247,23.1947354 32.6650396,23.2963353 32.7740937,23.3593053 C32.8838506,23.4229736 33.0276916,23.4514286 33.2021532,23.4514286 L33.9069767,23.4514286 L31.0406976,18.3771429 Z" id="Fill-19"></path>
                    <path d="M38.456462,23.0553659 L36.7617296,21.1943687 L36.1728706,21.1943687 L36.1728706,23.4507339 L35.0232558,23.4507339 L35.0232558,18.514363 L37.1330653,18.514363 C37.1330653,18.514363 38.0036873,18.50293 38.5740878,18.7581757 C39.1444631,19.0141407 39.3851791,19.3737961 39.3851791,19.8297762 C39.3851791,20.2864508 39.0808278,20.8245947 37.9906933,21.0953655 L40.1860465,23.4514286 L39.3058302,23.4514283 C39.3058302,23.4514283 39.1211948,23.4520731 38.9050565,23.3867241 C38.6896234,23.3207302 38.456462,23.0553659 38.456462,23.0553659 Z M36.1701509,18.9487916 L36.1701509,20.8185434 L36.7015443,20.8185434 C36.7015443,20.8185434 37.2295381,20.8252891 37.572141,20.6488095 C37.9154994,20.4729994 38.1575753,20.2271779 38.1575753,19.8607767 C38.1575753,19.4943756 37.8956559,19.1697136 37.5263095,19.0417435 C37.5263095,19.0417435 37.3143263,18.9487916 36.9367958,18.9487916 L36.1701509,18.9487916 Z" id="Fill-20"></path>
                    <path d="M17.0232558,21.12 L17.1865184,21.12 L17.1865184,22.0628897 C17.3465473,21.9169541 17.4929231,21.8310071 17.7381763,21.8310071 C18.1395301,21.8310071 18.4186047,22.1168673 18.4186047,22.5266551 C18.4186047,23.0064174 18.0816361,23.3142857 17.5644703,23.3142857 C17.3803687,23.3142857 17.2307593,23.2822917 17.0232558,23.2063061 L17.0232558,21.12 Z M17.1865184,23.0983755 C17.3224747,23.145704 17.4414964,23.1650132 17.5612127,23.1650132 C17.9593329,23.1650132 18.2449226,22.9011366 18.2449226,22.5359785 C18.2449226,22.1994775 18.0237421,21.9582714 17.7173373,21.9582714 C17.5267685,21.9582714 17.3706199,22.0408816 17.1865184,22.2348082 L17.1865184,23.0983755 Z" id="Fill-21"></path>
                    <polygon id="Fill-22" points="19.1354575 24 18.955343 24 19.532854 22.9754141 18.8372093 21.8057143 19.0214679 21.8057143 19.6215126 22.8207874 20.1912793 21.8057143 20.372093 21.8057143"></polygon>
                    <path d="M10.5916724,17.275991 L10.3658921,17.2599797 L10.1265669,17.2299 L9.87294581,17.1811528 L9.60710684,17.1130001 L9.32965087,17.0208428 L9.04070309,16.9039429 L8.74013832,16.7549711 L8.43281365,16.576633 L8.11597506,16.3628781 L7.79092445,16.1124029 L7.56587016,15.920021 L7.36527666,15.7436751 L7.18987001,15.578692 L7.03684611,15.4284167 L6.79003498,15.1632338 L6.61868427,14.9488148 L6.50514314,14.7831677 L6.43849562,14.6675959 L6.40043994,14.5754139 L6.25630404,14.5186487 L6.02236174,14.5754139 L5.76944168,14.6262025 L5.45528201,14.6742857 L5.10849961,14.7070216 L4.92966294,14.7143755 L4.75292935,14.7110306 L4.5788246,14.6970115 L4.41223085,14.6702767 L4.25585204,14.630851 L4.11239213,14.5754139 L3.54120639,14.3055825 L3.24136767,14.1499209 L2.93536995,13.9709187 L2.62872127,13.7631896 L2.47642343,13.6456256 L2.32477655,13.5187156 L2.17518266,13.3824348 L2.02761675,13.2328236 L1.88075186,13.0705214 L1.73799298,12.8968317 L1.59450804,12.6998014 L1.44764315,12.4726914 L1.29802423,12.2161659 L1.14845539,11.9363243 L1.0015905,11.6324042 L0.856077588,11.3104314 L0.718050631,10.9704305 L0.586132612,10.6137543 L0.463728514,10.2443624 L0.351539362,9.865649 L0.250917135,9.47955713 L0.165917766,9.08812815 L0.096566293,8.69202613 L0.0435387046,8.29926903 L0.0122429135,7.90651192 L0,7.52044465 L0.0088379314,7.14170668 L0.0319467435,6.77765191 L0.0680245315,6.42965765 L0.116270123,6.09565794 L0.174755697,5.77771874 L0.242079203,5.47581546 L0.313458644,5.1919157 L0.391673085,4.9233878 L0.551456876,4.44179365 L0.708511674,4.0390264 L0.847915646,3.71705362 L0.956023826,3.4799335 L1.00905141,3.37306834 L1.08113188,3.24748642 L1.17224019,3.10722129 L1.28034837,2.95424057 L1.40410444,2.79528327 L1.54077942,2.63295645 L1.69377829,2.47065423 L1.85761801,2.31368912 L2.03172276,2.16341385 L2.21802034,2.02511632 L2.41112789,1.90221525 L2.61374936,1.79935907 L2.82247977,1.71854 L3.03666816,1.66642325 L3.25361059,1.64571429 L3.36442273,1.64773107 L3.4752599,1.65973342 L3.52625952,1.65306818 L3.67112148,1.65306818 L3.77307065,1.663767 L3.89001676,1.68782088 L4.02328676,1.72520523 L4.16950069,1.78398722 L4.3258795,1.8628141 L4.49112128,1.96835113 L4.664525,2.10394321 L4.84198465,2.2702544 L5.02284929,2.47532728 L5.20368889,2.71645638 L5.38390257,3.00502919 L5.56068623,3.33834024 L5.76265675,3.77118715 L5.95301027,4.21935673 L6.13387491,4.6729126 L6.29841566,5.11444154 L6.57860062,5.90797371 L6.77779207,6.49576894 L7.08516681,7.50305601 L7.58760196,9.15625622 L7.85959994,10.0025692 L8.11254504,10.7446733 L8.22813917,11.0492574 L8.32943739,11.2930674 L8.41716575,11.4673965 L8.45457048,11.5248504 L8.48651723,11.5595785 L8.68846271,11.6156796 L8.8632184,11.4734223 L9.04343209,11.3177853 L9.25554244,11.1213945 L9.53162139,10.8442091 L9.86548489,10.4855161 L10.2428621,10.0466434 L10.4468355,9.79550414 L10.6562419,9.52163913 L10.8711564,9.22839328 L11.0921297,8.91446306 L11.4810237,8.35537016 L11.8318871,7.86979163 L12.1385858,7.45831775 L12.4064778,7.11566061 L12.6295041,6.83709796 L12.8096928,6.62469578 L12.9443398,6.47439591 L13.0333951,6.38223855 L13.1258554,6.29472964 L13.2733962,6.18250278 L13.3651805,6.12239267 L13.4672048,6.06562748 L13.5814219,6.01351073 L13.703125,5.9720928 L13.83299,5.94336587 L13.970366,5.92868267 L14.115203,5.93335572 L14.2675008,5.96139398 L14.4238796,6.01284667 L14.5829874,6.09432981 L14.7482292,6.20722073 L14.8311755,6.2753488 L14.915524,6.35351162 L15.0759587,6.52250367 L15.2262286,6.69683283 L15.3622276,6.87652369 L15.4859836,7.05820675 L15.6002008,7.24323472 L15.703577,7.42959083 L15.7953863,7.61393014 L15.8776317,7.79696592 L16.0183876,8.15032188 L16.1285488,8.48164074 L16.2135482,8.77685419 L16.2760897,9.02801804 L16.3420362,9.33594709 L16.4107117,9.7961682 L16.4392785,10.0753703 L16.4583063,10.3859802 L16.4651163,10.7206194 L16.4583063,11.0786484 L16.4311416,11.4593786 L16.3835219,11.8548165 L16.3114414,12.2656263 L16.2114952,12.6877744 L16.0795772,13.1186046 L15.9143604,13.5561245 L15.8171181,13.7751919 L15.7096609,13.9936445 L15.5934409,14.2140646 L15.4655537,14.4331566 L15.3316328,14.6468869 L15.1949829,14.8486395 L15.0548779,15.039644 L14.915524,15.2199989 L14.772715,15.3909832 L14.6292301,15.5513178 L14.4857702,15.7029458 L14.3423103,15.8458918 L14.1967973,15.9774749 L14.0539884,16.1017041 L13.7663926,16.3254937 L13.4855316,16.5185151 L13.2101787,16.6801532 L12.9456417,16.817098 L12.6934226,16.929989 L12.4561004,17.018826 L12.235778,17.090299 L12.0365615,17.1430798 L11.8597779,17.1804641 L11.5850759,17.2225461 L11.3273488,17.2486168 L10.9941864,17.275327 L10.8004279,17.28 L10.5916724,17.275991 Z M13.6555304,7.00542594 L13.5399613,7.05353371 L13.4196102,7.12099771 L13.2931502,7.20648984 L13.0762077,7.37080884 L12.8905861,7.5378087 L12.7171824,7.72214801 L12.5410998,7.94657713 L12.3411823,8.22912417 L12.104561,8.59116215 L11.4409401,9.6244953 L10.8636704,10.4815071 L10.0490535,11.6591143 L9.00808036,13.1533327 L8.9964884,13.2241416 L8.99989338,13.3163235 L9.02911113,13.4479066 L9.09170271,13.6209323 L9.20183886,13.8366548 L9.27935228,13.9629008 L9.37321461,14.0971647 L9.48537873,14.2454478 L9.61524374,14.4050937 L9.69072919,14.487241 L9.77637951,14.56806 L9.86954082,14.6468869 L9.97426906,14.7217048 L10.2034294,14.866643 L10.4618074,14.9955698 L10.7453473,15.1064686 L11.049267,15.1966337 L11.3688596,15.2607282 L11.7006701,15.296809 L11.8699928,15.3034989 L12.0413435,15.300154 L12.2126692,15.2888157 L12.384721,15.2687708 L12.5580996,15.237363 L12.7294253,15.1966337 L12.900776,15.1431889 L13.0694228,15.081062 L13.2366925,15.0069327 L13.4005573,14.9200879 L13.5616931,14.820552 L13.7201499,14.7070216 L13.8751517,14.5827678 L14.0233936,14.4418386 L14.1689065,14.2888825 L14.3076095,14.1205299 L14.4374995,13.9421918 L14.5578506,13.7651818 L14.6673358,13.5848514 L14.767257,13.4044965 L14.8577144,13.2228135 L14.9400098,13.0404417 L15.0786877,12.6764116 L15.1854189,12.3123814 L15.2643343,11.9536883 L15.3180379,11.5990042 L15.3499847,11.2536662 L15.3622276,10.9183384 L15.3595486,10.5937094 L15.3445517,10.2844522 L15.3173619,9.99187039 L15.2486864,9.46285714 L15.177307,9.02801804 L15.1004445,8.66598006 L15.0073083,8.34936899 L14.8984991,8.07550397 L14.778849,7.83636706 L14.6489589,7.63131878 L14.5163399,7.4556369 L14.3817179,7.30533703 L14.2498249,7.17842697 L14.1233399,7.07891572 L14.0016618,7.01477203 L13.8853667,6.98471698 L13.7704485,6.98206072 L13.6555304,7.00542594 Z M2.26969595,2.97497413 L2.20918241,3.00102021 L2.14526389,3.03909322 L2.0793174,3.09519435 L2.0113179,3.16465055 L1.94058941,3.25282353 L1.87942492,3.34168516 L1.82023832,3.44119642 L1.7080742,3.67364349 L1.60537394,3.94148274 L1.50950867,4.2380735 L1.42380827,4.55269238 L1.34561887,4.88133039 L1.21302486,5.54659979 L1.11172665,6.16914771 L1.03964618,6.68748674 L0.984565588,7.17842697 L0.986643628,7.57118408 L1.00431949,8.00203879 L1.04578016,8.53373289 L1.07910391,8.82429789 L1.12194159,9.12487304 L1.17564517,9.42945717 L1.24091567,9.73539403 L1.32048209,10.0332883 L1.41431939,10.3231893 L1.5231286,10.5970543 L1.6516166,10.8495462 L1.78829158,11.0806406 L1.92564254,11.2970764 L2.06572251,11.4974762 L2.20512648,11.6838323 L2.34107539,11.8534884 L2.47642343,12.0104535 L2.60696443,12.1500546 L2.73342447,12.2776287 L2.96666574,12.4900555 L3.17063919,12.6483733 L3.33245095,12.7539103 L3.44736909,12.8126677 L3.57180116,12.8487485 L3.76152876,12.8914946 L4.25109508,12.9870215 L4.74952437,13.0645202 L4.95414877,13.0865327 L5.09833474,13.0965675 L5.15814725,13.0852046 L5.2179848,13.0658237 L5.28187829,13.0324484 L5.3118221,13.0077304 L5.33971291,12.9790035 L5.36282172,12.9442754 L5.37776859,12.9035215 L5.3879585,12.8554384 L5.3879585,12.8019935 L5.37912057,12.7392025 L5.35876579,12.6704104 L4.659743,10.8742642 L4.42720275,10.2570534 L4.21369035,9.67260306 L4.04369161,9.16963589 L3.93898841,8.80090807 L3.7676377,8.00403099 L3.55207229,6.94130685 L3.33996194,5.85986594 L3.18628708,5.01556975 L3.12236856,4.6528677 L3.03739423,4.23674537 L2.92926101,3.81258049 L2.86739549,3.61353338 L2.79734299,3.43185033 L2.71980454,3.27018758 L2.63483021,3.13796501 L2.58793659,3.08316741 L2.54031692,3.0377405 L2.49134526,3.00234833 L2.43966965,2.97829445 L2.38526505,2.96427532 L2.32888255,2.96427532 L2.26969595,2.97497413 Z" id="Fill-23"></path>
                </g>
            </g>
        </g>
    </g>
</svg>