<?xml version="1.0" encoding="UTF-8"?>
<svg width="102px" height="53px" viewBox="0 0 102 53" version="1.1" xmlns="http://www.w3.org/2000/svg" xmlns:xlink="http://www.w3.org/1999/xlink">
    <!-- Generator: Sketch 51 (57462) - http://www.bohemiancoding.com/sketch -->
    <title>footer-logo-harman</title>
    <desc>Created with Sketch.</desc>
    <defs></defs>
    <g id="Symbols" stroke="none" stroke-width="1" fill="none" fill-rule="evenodd">
        <g id="Support-/-Static-/-Support-Footer-/-Desktop" transform="translate(-260.000000, -497.000000)" fill="#E7EEF0">
            <g id="Logo-group" transform="translate(260.000000, 492.000000)">
                <g id="footer-logo-harman" transform="translate(0.000000, 5.000000)">
                    <path d="M67.7692014,45.1650725 L66.6516875,45.1650725 C59.2654236,48.1932472 50.7125347,50.1868803 42.0963681,50.5208498 C45.8018958,49.2282515 49.7215764,47.4357406 53.6629792,45.1650725 L49.9671319,45.1650725 C46.0698819,47.3491817 42.2132431,49.0370812 38.6134931,50.1794742 C38.2187153,50.3046838 37.8291319,50.4227188 37.4442708,50.5338105 C31.1774097,50.3032952 26.2053819,48.9190463 22.7536736,46.7965004 C21.9298819,46.289876 21.2083264,45.7415921 20.5627986,45.1650725 L19.8140903,45.1650725 C20.5790903,45.9417886 21.4805625,46.6705965 22.5258264,47.3318236 C25.5733125,49.2606533 29.8060764,50.6284699 35.0758403,51.1457406 C30.2372153,52.2425397 26.2925069,52.1589895 23.3951875,51.2022122 C20.4973958,50.2456664 18.3343819,48.4221424 17.5410486,46.0253389 C17.4494375,45.7473782 17.3729375,45.4599284 17.3082431,45.1650725 L16.8343681,45.1650725 C16.9111042,45.5388498 17.0034236,45.9038323 17.1184097,46.2565485 C17.9927292,48.9246009 20.3868958,50.9705397 23.4825486,52.0664131 C27.1628125,53.3712777 32.5034097,53.3668803 39.2280903,51.4359677 C39.2993958,51.4153694 39.3718819,51.3926882 39.4436597,51.3718585 C48.4201319,51.4563345 58.5993542,49.3807712 67.7692014,45.1650725" id="Fill-15"></path>
                    <path d="M70.2361375,8.53251397 C63.6701236,7.9851559 56.1894153,8.7553917 51.1866931,9.75105109 C45.0862903,10.9649594 39.3976653,12.6570249 34.0261375,14.9614834 C32.7993042,15.4877803 31.6248875,16.0643 30.4540125,16.6771559 C34.1619014,13.9387454 38.3549986,11.3033262 42.8130125,9.07709476 C55.3382347,2.82378908 68.4834847,0.456610044 74.6870681,4.99493755 C76.3981653,6.24657074 77.3773181,7.8763786 77.7291236,9.78345284 C74.7501097,9.00419083 71.9784014,8.67762751 70.2361375,8.53251397 Z M28.1590125,18.4981341 C28.1590125,18.4981341 31.5790819,16.5938371 34.1392347,15.5282825 C40.4519014,12.9007323 46.0075958,11.3581777 51.1262486,10.4074179 C55.2584292,9.63995939 67.8636931,7.71969301 77.8552069,10.7883699 C78.0138736,13.06899 77.3792069,15.6879769 76.0980681,18.4979026 L80.1981375,18.4979026 C81.2082208,16.4230336 81.8927069,14.4298633 82.2086236,12.5653742 C83.7589292,13.3872214 85.1810264,14.3856581 86.4142347,15.5963262 C87.5565403,16.7185838 88.6624847,18.4979026 88.6624847,18.4979026 L90.4736931,18.4979026 C90.4736931,18.4979026 89.7013736,16.7859332 87.9912208,15.0795183 C86.4043181,13.4955358 84.4349153,12.2918109 82.3613875,11.3755358 C82.6714014,7.74677162 81.4547208,4.67902052 78.3522208,2.55578035 C70.9307764,-2.52203624 56.2012208,0.395972489 42.6338042,7.52643974 C36.5570125,10.7196319 31.0185542,14.5999725 26.4698736,18.4981341 L28.1590125,18.4981341 Z" id="Fill-10"></path>
                    <path d="M101.223879,24.0229096 C101.14431,24.0229096 101.057185,24.0284642 100.953296,24.0448965 C100.84799,24.0641061 100.748824,24.1002109 100.65674,24.1529795 C100.558282,24.2106083 100.476351,24.2892983 100.416143,24.3858092 C100.349796,24.4892633 100.316268,24.6211847 100.316268,24.7774074 L100.316268,33.6559489 L90.5462264,24.023141 L88.6632403,24.023141 L88.6632403,37.7952721 L90.3752819,37.7952721 L90.3752819,27.4116694 L100.288879,37.4534336 C100.693338,37.8258223 101.251976,37.7957349 101.795268,37.7957349 L101.999504,37.7957349 L101.999504,24.0229096 L101.223879,24.0229096 Z" id="Fill-8"></path>
                    <path d="M85.9564389,37.7953415 L78.6192861,23.7177083 L77.7591333,23.7177083 L70.2437167,37.7962672 L71.9590639,37.7962672 L74.2937306,33.4164769 L79.6234667,33.4164769 L78.8868,32.0120926 L75.042675,32.0120926 L77.5131056,27.3832716 L82.3597583,36.7006253 C82.5507722,37.0829659 82.7892444,37.3650926 83.0685639,37.5384419 C83.3500083,37.7148 83.7183417,37.7953415 84.1643556,37.7953415 L85.9564389,37.7953415 Z" id="Fill-6"></path>
                    <path d="M67.5496889,37.7962441 L67.5496889,24.0236502 L64.67905,24.0236502 L58.9354111,34.2239515 L53.0777306,24.0236502 L50.1723833,24.0236502 L50.1723833,37.7960127 L51.6693278,37.7960127 L51.6693278,27.1152397 L57.8353694,37.7960127 L58.6013139,37.7960127 L64.6053833,27.1978642 L64.6053833,36.3124755 C64.6053833,36.6237638 64.6724389,36.8806633 64.7978139,37.0769253 C64.9194111,37.2664755 65.0759528,37.417838 65.2627167,37.527541 C65.4454667,37.6333096 65.6468694,37.7050563 65.8598417,37.741624 C66.0680917,37.7768031 66.2522583,37.7962441 66.4250917,37.7962441 L67.5496889,37.7962441 Z" id="Fill-4"></path>
                    <path d="M37.2851556,25.2322122 L37.2851556,30.4493563 L38.6427944,30.4493563 C38.6427944,30.4493563 39.9905167,30.4685659 40.8662528,29.9767537 C41.7417528,29.4849415 42.3615444,28.8003389 42.3615444,27.7780638 C42.3615444,26.7560201 41.6926417,25.8494655 40.7481972,25.4925834 C40.7481972,25.4925834 40.2070306,25.2322122 39.2429889,25.2322122 L37.2851556,25.2322122 Z M43.1239472,36.6903956 L38.7962667,31.4989415 L37.2922389,31.4989415 L37.2922389,37.7927493 L34.35785,37.7927493 L34.35785,24.0210812 L39.744725,24.0210812 C39.744725,24.0210812 41.9679472,23.9882166 43.4240444,24.7017493 C44.8801417,25.4155135 45.4959194,26.4183476 45.4959194,27.6912734 C45.4959194,28.9641991 44.7184056,30.4660201 41.9348917,31.2216751 L47.54135,37.7946039 L45.2933361,37.7946009 C45.2933361,37.7946009 44.8211139,37.7976096 44.2700306,37.6143083 C43.7191833,37.4312384 43.1239472,36.6903956 43.1239472,36.6903956 Z" id="Fill-17"></path>
                    <path d="M24.2544194,23.7176852 L23.3952111,23.7176852 L15.8675167,37.7948555 L17.5821556,37.7948555 L23.1491833,27.3832485 L25.5570444,32.0120694 L21.69285,32.0120694 L20.9472111,33.4164537 L26.2951278,33.4164537 L27.9868639,36.7024537 C28.1781139,37.0847943 28.4165861,37.3666895 28.6959056,37.5402703 C28.97735,37.7163969 29.3456833,37.7960127 29.7916972,37.7960127 L31.5984194,37.7960127 L24.2544194,23.7176852 Z" id="Fill-13"></path>
                    <path d="M10.1836847,24.0236965 L10.1836847,30.1402205 L2.93460139,30.1402205 L2.93460139,24.0236965 L-2.36111111e-05,24.0236965 L-2.36111111e-05,37.796059 L2.93460139,37.796059 L2.93460139,31.37519 L10.1836847,31.37519 L10.1803792,36.3155306 C10.1803792,36.6256616 10.2431847,36.8825611 10.3671431,37.0795175 C10.4903931,37.2704563 10.6478792,37.4222817 10.8346431,37.5301332 C11.0157403,37.6342817 11.2154903,37.7060284 11.4310597,37.7444476 C11.6414347,37.7791638 11.8256014,37.7962904 11.9951292,37.7962904 L13.1199625,37.7962904 L13.1199625,24.0236965 L10.1836847,24.0236965 Z" id="Fill-1"></path>
                </g>
            </g>
        </g>
    </g>
</svg>