<?xml version="1.0" encoding="UTF-8"?>
<svg width="48px" height="48px" viewBox="0 0 48 48" version="1.1" xmlns="http://www.w3.org/2000/svg" xmlns:xlink="http://www.w3.org/1999/xlink">
    <!-- Generator: Sketch 51 (57462) - http://www.bohemiancoding.com/sketch -->
    <title>footer-logo-jbl</title>
    <desc>Created with Sketch.</desc>
    <defs></defs>
    <g id="Symbols" stroke="none" stroke-width="1" fill="none" fill-rule="evenodd">
        <g id="Support-/-Static-/-Support-Footer-/-Desktop" transform="translate(-1075.000000, -504.000000)" fill="#E7EEF0">
            <g id="Logo-group" transform="translate(260.000000, 492.000000)">
                <g id="footer-logo-jbl" transform="translate(815.000000, 12.000000)">
                    <path d="M8.48821894,40.4210526 L8.48821894,43.0388183 L5.34162455,43.0388183 L5.34162455,40.4210526 L4.06779661,40.4210526 L4.06779661,46.3157895 L5.34162455,46.3157895 L5.34162455,43.5673942 L8.48821894,43.5673942 L8.48681772,45.6816526 C8.48681772,45.8149366 8.5137734,45.9244904 8.56763726,46.0089527 C8.62152486,46.0907607 8.68992341,46.1554403 8.77074294,46.2016303 C8.84949627,46.2464818 8.93584943,46.2768592 9.02980244,46.2933751 C9.12097675,46.3085524 9.20110755,46.3157895 9.27432724,46.3157895 L9.76271186,46.3157895 L9.76271186,40.4210526 L8.48821894,40.4210526 Z" id="Fill-1"></path>
                    <path d="M31.7288136,46.3157895 L31.7288136,40.4210526 L30.5190872,40.4210526 L28.098966,44.7868404 L25.6312607,40.4210526 L24.4067797,40.4210526 L24.4067797,46.3157895 L25.0377979,46.3157895 L25.0377979,41.7441197 L27.6356214,46.3157895 L27.9581505,46.3157895 L30.4882406,41.7797605 L30.4882406,45.6810149 C30.4882406,45.8142994 30.5164129,45.9238309 30.5693916,46.0076357 C30.6203415,46.0887861 30.6867378,46.1541239 30.7651915,46.200972 C30.8422849,46.2458463 30.9268019,46.2768591 31.0166443,46.2926944 C31.1044811,46.3072366 31.1822892,46.3157895 31.2547257,46.3157895 L31.7288136,46.3157895 Z" id="Fill-3"></path>
                    <path d="M38.2372881,46.3151459 L35.1982549,40.4210526 L34.8416628,40.4210526 L31.7288136,46.3157895 L32.4394594,46.3157895 L33.4065461,44.48193 L35.6142488,44.48193 L35.3090355,43.8938789 L33.7163602,43.8938789 L34.7401063,41.9560486 L36.7474611,45.8568308 C36.8265577,46.016926 36.9254172,46.1350555 37.0408212,46.207358 C37.1574944,46.2815912 37.3104297,46.3151459 37.4949809,46.3151459 L38.2372881,46.3151459 Z" id="Fill-5"></path>
                    <path d="M44.414789,40.4210526 C44.3807711,40.4210526 44.3434122,40.4237069 44.299231,40.4303084 C44.2543956,40.4388836 44.2115928,40.4540603 44.1728554,40.4764964 C44.1307068,40.501564 44.0953805,40.5352068 44.06954,40.5761318 C44.0416902,40.6203461 44.0274148,40.6770829 44.0274148,40.743756 L44.0274148,44.5438297 L39.8554317,40.4210526 L39.0508475,40.4210526 L39.0508475,46.3155565 L39.7820689,46.3155565 L39.7820689,41.8714598 L44.0151721,46.1690752 C44.1884859,46.3281017 44.426985,46.3155565 44.658732,46.3155565 L44.7457627,46.3155565 L44.7457627,40.4210526 L44.414789,40.4210526 Z" id="Fill-7"></path>
                    <path d="M14.0461538,40.4210526 L13.6906044,40.4210526 L10.5762712,46.3151236 L11.2853778,46.3151236 L13.5891935,41.955589 L14.5847181,43.8942228 L12.9860703,43.8942228 L12.6779442,44.4823581 L14.8902411,44.4823581 L15.5901347,45.8580919 C15.6691583,46.0181818 15.7679207,46.1363237 15.8837962,46.2086338 C16.0003282,46.2828527 16.1524219,46.3157895 16.3367725,46.3157895 L17.0847458,46.3157895 L14.0461538,40.4210526 Z" id="Fill-9"></path>
                    <path d="M21.6848547,45.843325 L19.8156283,43.6215281 L19.1659794,43.6215281 L19.1659794,46.3151528 L17.8983051,46.3151528 L17.8983051,40.4211615 L20.2253606,40.4211615 C20.2253606,40.4211615 21.1857357,40.406665 21.814775,40.7121803 C22.4431289,41.0176955 22.7091619,41.4472816 22.7091619,41.9916826 C22.7091619,42.5367188 22.37369,43.1794192 21.1712949,43.5027431 L23.5932203,46.3157895 L22.6218551,46.315788 C22.6218551,46.315788 22.4176743,46.3171265 22.1797904,46.2386095 C21.9419537,46.1600699 21.6848547,45.843325 21.6848547,45.843325 Z M19.1625524,40.9391785 L19.1625524,43.1721823 L19.7489546,43.1721823 C19.7489546,43.1721823 20.3312207,43.1807577 20.7093534,42.9702524 C21.0881241,42.759747 21.3555515,42.4667773 21.3555515,42.0292737 C21.3555515,41.5917701 21.0668056,41.2037678 20.6584677,41.0507039 C20.6584677,41.0507039 20.4247435,40.9391785 20.0081098,40.9391785 L19.1625524,40.9391785 Z" id="Fill-11"></path>
                    <polygon id="Fill-15" points="1.94317699 47.1578947 1.75220073 47.1578947 2.36457254 45.9786405 1.62711864 44.6315789 1.82220744 44.6315789 2.45836658 45.7999323 3.06326103 44.6315789 3.25423729 44.6315789"></polygon>
                    <path d="M0,43.7894737 L0.190756128,43.7894737 L0.190756128,44.8754393 C0.376711866,44.7073371 0.54743468,44.6085146 0.832915354,44.6085146 C1.30157134,44.6085146 1.62711864,44.9377499 1.62711864,45.4092887 C1.62711864,45.9613832 1.23381929,46.3157895 0.631085056,46.3157895 C0.416802259,46.3157895 0.241920691,46.2792775 0,46.1917743 L0,43.7894737 Z M0.190756128,46.0677809 C0.349050207,46.122538 0.488000137,46.143943 0.626926302,46.143943 C1.09142353,46.143943 1.42459918,45.8405064 1.42459918,45.4199804 C1.42459918,45.0328065 1.16678017,44.7545624 0.80941245,44.7545624 C0.587525073,44.7545624 0.40506269,44.849619 0.190756128,45.073106 L0.190756128,46.0677809 Z" id="Fill-13"></path>
                    <path d="M23.7524814,12.4729356 L22.3716038,12.4729356 L22.3716038,17.8020592 L23.7524814,17.8059446 C24.6717853,17.8059446 24.9016381,17.6457767 24.9016381,15.1581789 C24.9016381,12.6712028 24.6717853,12.4729356 23.7524814,12.4729356 Z M23.9035981,19.1453025 L22.3716038,19.1453025 L22.3716038,25.5393406 L23.9035981,25.5425821 C24.9016381,25.5425821 24.9016381,24.8483584 24.9016381,22.3620484 C24.9016381,19.8737845 24.9016381,19.1453025 23.9035981,19.1453025 Z M0,37.8947368 L44.7457627,37.8947368 L44.7457627,0 L0,0 L0,37.8947368 Z M13.8672642,10.9733876 L11.5308603,16.4601036 L9.19383361,10.9733876 L13.8672642,10.9733876 Z M11.5308603,17.0452027 C12.3377607,17.0452027 12.9935229,17.7187559 12.9935229,18.5537648 C12.9935229,19.3849105 12.3377607,20.0610614 11.5308603,20.0610614 C10.7214477,20.0610614 10.0675534,19.3849105 10.0675534,18.5537648 C10.0675534,17.7187559 10.7214477,17.0452027 11.5308603,17.0452027 Z M17.9286487,24.079224 C17.9286487,25.6594554 16.9318754,27.0789416 14.0970741,27.0789416 C11.2629384,27.0789416 10.2667878,25.2235785 10.2667878,24.079224 L10.2667878,21.7898489 L12.7936658,21.7898489 L12.7955553,24.5525785 C12.7955553,25.2933161 13.3788726,25.8964879 14.0989636,25.8964879 C14.8184319,25.8964879 15.4005038,25.2752212 15.4005038,24.5344835 L15.3992585,10.9733876 L17.9286487,10.9733876 L17.9286487,24.079224 Z M27.4291388,16.2624804 C27.4291388,17.0529291 26.7590121,18.4536765 25.7634842,18.4536765 C26.7590121,18.4536765 27.4291388,19.3409942 27.4291388,20.013282 L27.4291388,24.7702283 C27.4291388,25.5793936 26.7977252,26.8432191 24.9016381,26.8432191 L19.8459712,26.8432191 L19.8459712,10.9733876 L24.9016381,10.9733876 C25.8771545,10.9733876 27.4291388,11.80198 27.4291388,13.5591643 L27.4291388,16.2624804 Z M36.9308742,26.8432191 L29.2690134,26.8432191 L29.2690134,10.9733876 L31.7977809,10.9733876 L31.7977809,24.5525785 C31.7977809,25.2933161 32.3817424,25.8964879 33.100588,25.8964879 C33.8200563,25.8964879 34.4033521,25.2933161 34.4033521,24.5525785 L34.4014841,21.7898489 L36.9308742,21.7898489 L36.9308742,26.8432191 Z" id="Fill-18"></path>
                    <path d="M46.5420551,36.5337894 L46.5420551,36.1135878 L46.822877,36.1135878 C46.9576502,36.1135878 47.1132933,36.1451418 47.1132933,36.3153161 C47.1132933,36.5096824 46.9809187,36.5337894 46.8187358,36.5337894 L46.5420551,36.5337894 Z M46.3124651,37.3457875 L46.5420551,37.3457875 L46.5420551,36.7318579 L46.7435794,36.7318579 L47.0900248,37.3457875 L47.3542204,37.3457875 L46.9737844,36.7213258 C47.1878347,36.6978146 47.3452615,36.5950887 47.3452615,36.3357634 C47.3452615,36.0349902 47.1627826,35.9167746 46.822877,35.9167746 L46.3124651,35.9167746 L46.3124651,37.3457875 Z M45.7889121,36.6316002 C45.7889121,36.0671612 46.2325319,35.6098098 46.7793535,35.6098098 C47.3273641,35.6098098 47.7698359,36.0671612 47.7698359,36.6316002 C47.7698359,37.2003585 47.3273641,37.6583269 46.7793535,37.6583269 C46.2325319,37.6583269 45.7889121,37.2003585 45.7889121,36.6316002 Z M45.559322,36.6316002 C45.559322,37.3309361 46.1067176,37.8947368 46.7793535,37.8947368 C47.4519894,37.8947368 48,37.3309361 48,36.6316002 C48,35.9372006 47.4519894,35.3684211 46.7793535,35.3684211 C46.1067176,35.3684211 45.559322,35.9372006 45.559322,36.6316002 Z" id="Fill-21"></path>
                </g>
            </g>
        </g>
    </g>
</svg>