<?xml version="1.0" encoding="UTF-8"?>
<svg width="53px" height="24px" viewBox="0 0 53 24" version="1.1" xmlns="http://www.w3.org/2000/svg" xmlns:xlink="http://www.w3.org/1999/xlink">
    <!-- Generator: Sketch 51 (57462) - http://www.bohemiancoding.com/sketch -->
    <title>footer-logo-revel</title>
    <desc>Created with Sketch.</desc>
    <defs></defs>
    <g id="Symbols" stroke="none" stroke-width="1" fill="none" fill-rule="evenodd">
        <g id="Support-/-Static-/-Support-Footer-/-Desktop" transform="translate(-1587.000000, -513.000000)" fill="#E7EEF0">
            <g id="Logo-group" transform="translate(260.000000, 492.000000)">
                <g id="footer-logo-revel" transform="translate(1327.000000, 21.000000)">
                    <path d="M10.4547851,16.9655172 L10.4547851,19.7215315 L7.07111131,19.7215315 L7.07111131,16.9655172 L5.70119522,16.9655172 L5.70119522,23.1724138 L7.07111131,23.1724138 L7.07111131,20.2781867 L10.4547851,20.2781867 L10.4535064,22.5046811 C10.4535064,22.6454299 10.4830926,22.7601846 10.5397517,22.8490296 C10.5976895,22.9354232 10.6711039,23.0033461 10.7586279,23.0527139 C10.8435945,23.0995879 10.9363215,23.1316685 11.0367646,23.1489557 C11.1345623,23.1650171 11.2208517,23.1724138 11.3006595,23.1724138 L11.8247012,23.1724138 L11.8247012,16.9655172 L10.4547851,16.9655172 Z" id="Fill-1"></path>
                    <path d="M36.9521912,23.1724138 L36.9521912,16.9655172 L35.6263305,16.9655172 L32.974609,21.5630164 L30.2707219,16.9655172 L28.9282869,16.9655172 L28.9282869,23.1724138 L29.6198734,23.1724138 L29.6198734,18.3589729 L32.4664743,23.1724138 L32.8205112,23.1724138 L35.5932254,18.3959987 L35.5932254,22.5034553 C35.5932254,22.6442041 35.6237571,22.7601846 35.6810695,22.8478461 C35.7384254,22.9341975 35.8097388,23.0021204 35.8963179,23.0514881 C35.9804109,23.0995879 36.0734018,23.1316685 36.1714521,23.1477299 C36.2682376,23.1637913 36.3535955,23.1724138 36.4325418,23.1724138 L36.9521912,23.1724138 Z" id="Fill-3"></path>
                    <path d="M45.6095618,23.1724138 L42.1582586,16.7586207 L41.7534279,16.7586207 L38.2191235,23.1724138 L39.0261634,23.1724138 L40.1237964,21.1771387 L42.6305389,21.1771387 L42.2840934,20.537003 L40.4754406,20.537003 L41.6379904,18.4282299 L43.917635,22.6732532 C44.0071678,22.8479872 44.1200281,22.9765271 44.2510616,23.0551125 C44.383428,23.1362192 44.5572951,23.1724138 44.7661755,23.1724138 L45.6095618,23.1724138 Z" id="Fill-5"></path>
                    <path d="M52.644131,16.9655172 C52.6073514,16.9655172 52.5680995,16.9680109 52.5199997,16.9754073 C52.4718566,16.9840294 52.4262724,17.0000478 52.3832038,17.0247307 C52.3388773,17.0494558 52.3008833,17.0852543 52.272995,17.129675 C52.2426344,17.1753213 52.2274541,17.234577 52.2274541,17.3049062 L52.2274541,21.3061034 L47.7415095,16.9655172 L46.876494,16.9655172 L46.876494,23.172151 L47.6630057,23.172151 L47.6630057,18.4922181 L52.2147894,23.0178833 C52.400943,23.1857181 52.6567957,23.172151 52.9062293,23.172151 L53,23.172151 L53,16.9655172 L52.644131,16.9655172 Z" id="Fill-7"></path>
                    <path d="M16.8212907,16.7586207 L16.4182404,16.7586207 L12.8804781,23.1711748 L13.6865342,23.1711748 L16.3016568,18.4278962 L17.4329224,20.5375296 L15.617421,20.5375296 L15.2675368,21.1762985 L17.7802326,21.1762985 L18.574617,22.6733956 C18.6640408,22.8480093 18.7767635,22.9765235 18.9076816,23.055136 C19.0398423,23.1362264 19.2134974,23.1724138 19.4221232,23.1724138 L20.2709163,23.1724138 L16.8212907,16.7586207 Z" id="Fill-10"></path>
                    <path d="M25.6099472,22.674982 L23.599524,20.3349989 L22.9012118,20.3349989 L22.9012118,23.1724128 L21.5378486,23.1724138 L21.5378486,16.9656227 L24.0403024,16.9656227 C24.0403024,16.9656227 25.0730708,16.9508295 25.7495745,17.2717144 C26.426166,17.5938251 26.7118711,18.0455661 26.7118711,18.6194564 C26.7118711,19.1933468 26.3505162,19.8696904 25.0576688,20.2103136 L27.6613546,23.1724138 L26.6170456,23.1724128 C26.6170456,23.1724128 26.3979509,23.1736385 26.1416456,23.0909236 C25.8867007,23.0082509 25.6099472,22.674982 25.6099472,22.674982 Z M22.8973503,17.5111101 L22.8973503,19.8622515 L23.5277796,19.8622515 C23.5277796,19.8622515 24.1543475,19.8709161 24.5605042,19.6499907 C24.9679773,19.4278396 25.2562714,19.1192964 25.2562714,18.6588908 C25.2562714,18.197344 24.9448962,17.7901092 24.506663,17.6283988 C24.506663,17.6283988 24.2555795,17.5111101 23.8070782,17.5111101 L22.8973503,17.5111101 Z" id="Fill-12"></path>
                    <path d="M0.211155378,20.2758621 L0.408945144,20.2758621 L0.408945144,21.5209174 C0.602986149,21.3285868 0.779603933,21.2144618 1.07567089,21.2144618 C1.56207269,21.2144618 1.90039841,21.592712 1.90039841,22.1338285 C1.90039841,22.7659727 1.4924224,23.1724138 0.866677437,23.1724138 C0.644052127,23.1724138 0.462407595,23.1314008 0.211155378,23.0300979 L0.211155378,20.2758621 Z M0.408945144,22.8877821 C0.573123856,22.9506188 0.717408572,22.9762629 0.861693288,22.9762629 C1.34434632,22.9762629 1.69016957,22.627521 1.69016957,22.1453332 C1.69016957,21.7017433 1.42272952,21.3824218 1.05207073,21.3824218 C0.82066991,21.3824218 0.631570455,21.491453 0.408945144,21.7478499 L0.408945144,22.8877821 Z" id="Fill-14"></path>
                    <polygon id="Fill-16" points="2.65054589 24 2.45236092 24 3.08842952 22.7436326 2.32270916 21.3103448 2.52453862 21.3103448 3.18507139 22.5534349 3.81385101 21.3103448 4.01195219 21.3103448"></polygon>
                    <path d="M7.04850313,9.18868155 C7.55202406,8.95552481 8.01583375,8.63508375 8.42207311,8.23854648 C9.35355392,7.32701465 9.86607021,6.11498392 9.86607021,4.82689968 C9.86607021,3.53757706 9.35355392,2.32550363 8.42207311,1.4140572 C7.48927591,0.502525372 6.25151397,0 4.93305704,0 C2.21277153,0 0,2.16468526 0,4.82689968 L0,12.3796835 L0,13.4295721 L2.14488945,13.4295721 L2.14488945,12.3796835 L2.14488945,4.82689968 C2.14488945,4.09745216 2.43445237,3.41288518 2.96109796,2.89793332 C3.48769968,2.38289606 4.18859203,2.09862418 4.93305704,2.09862418 C5.67747818,2.09862418 6.37837053,2.38289606 6.90497224,2.89793332 C7.43157395,3.41288518 7.72118076,4.09745216 7.72118076,4.82689968 C7.72118076,6.33071796 6.47060591,7.5539795 4.93305704,7.5539795 L2.34348951,7.5539795 L4.17450661,9.34454641 L8.03509699,13.1216002 L8.36437115,13.4432796 L11.4023904,13.4482759 L9.55215398,11.6377241 L7.04850313,9.18868155 Z" id="Fill-21"></path>
                    <path d="M15.7269229,2.10636575 L20.9086079,2.10636575 L26.2664238,14.6896552 L32.5179283,0.0125154403 L30.1919427,0 L26.2664238,9.21406432 L22.3525296,0 L20.6745739,0.00878652487 L20.670699,0 L15.7204942,0 C13.7300821,0 10.7689243,1.29037618 10.7689243,4.84484695 L10.7689243,8.63458228 C10.7689243,8.85235952 10.8100949,10.7960245 12.2321323,12.1877672 C13.1077674,13.0451177 14.2816803,13.4793864 15.7204942,13.4793864 L20.670699,13.4793864 L20.670699,11.3730206 L15.7204942,11.3730206 C13.091035,11.3730206 12.9277616,9.08642397 12.9213328,8.62832456 L12.9213328,7.79227601 L20.670699,7.79227601 L20.670699,5.68715323 L12.9213328,5.68715323 L12.9213328,4.84484695 C12.9213328,2.27159528 15.2588549,2.11262347 15.7269229,2.10636575" id="Fill-23"></path>
                    <path d="M51.9227643,11.3466861 L48.0448482,11.3466861 C45.4127613,11.3466861 45.2492806,9.06536692 45.2441677,8.60836757 L45.2441677,1.05135079 L45.2441677,0 L43.0896523,0 L36.8409362,0 C34.8485351,0 31.8844622,1.28735523 31.8844622,4.83362225 L31.8844622,8.61461085 C31.8844622,8.83188545 31.9256298,10.7710645 33.3491324,12.159595 C34.2256426,13.0149668 35.4006845,13.4482759 36.8409362,13.4482759 L41.7961321,13.4482759 L41.7961321,11.3466861 L36.8409362,11.3466861 C34.2088934,11.3466861 34.0454127,9.06536692 34.0389775,8.60836757 L34.0389775,7.77424862 L41.7961321,7.77424862 L41.7961321,5.67270162 L34.0389775,5.67270162 L34.0389775,4.83362225 C34.0389775,2.26635242 36.3776015,2.10774752 36.8473714,2.10150424 L43.0896523,2.10150424 L43.0896523,8.61461085 C43.0896523,8.83188545 43.1295418,10.7710645 44.5530003,12.159595 C45.4295105,13.0149668 46.6045965,13.4482759 48.0448482,13.4482759 L51.9227643,13.4482759 L53,13.4482759 L53,11.3466861 L51.9227643,11.3466861 Z" id="Fill-25"></path>
                    <path d="M51.6313168,2.68965517 C52.3876318,2.68965517 53,2.08845751 53,1.33663535 C53,0.602541361 52.3876318,0 51.6313168,0 C50.8711534,0 50.2549801,0.602541361 50.2549801,1.33663535 C50.2549801,2.08845751 50.8711534,2.68965517 51.6313168,2.68965517 Z M51.6313168,0.263278629 C52.243685,0.263278629 52.7386128,0.742979748 52.7386128,1.33663535 C52.7386128,1.9504898 52.243685,2.42641989 51.6313168,2.42641989 C51.0113383,2.42641989 50.5151566,1.9504898 50.5151566,1.33663535 C50.5151566,0.742979748 51.0113383,0.263278629 51.6313168,0.263278629 Z M51.8509772,1.40243333 C52.1224394,1.39484793 52.334576,1.28345081 52.334576,0.987316533 C52.334576,0.860748605 52.2777583,0.727808934 52.1641662,0.66326796 C52.0466825,0.59742663 51.9179131,0.591098234 51.7903976,0.591098234 L51.1211685,0.591098234 L51.1211685,2.09478591 L51.3472284,2.09478591 L51.3472284,1.40243333 L51.6161395,1.40243333 L52.0542928,2.09478591 L52.3156368,2.09478591 L51.8509772,1.40243333 Z M51.3472284,1.21509546 L51.3472284,0.761964937 L51.7449521,0.761964937 C51.9368523,0.761964937 52.1073053,0.788578878 52.1073053,0.983502157 C52.1073053,1.25306584 51.8118448,1.21509546 51.5972003,1.21509546 L51.3472284,1.21509546 Z" id="Fill-27"></path>
                </g>
            </g>
        </g>
    </g>
</svg>