<?xml version="1.0" encoding="UTF-8"?>
<svg width="145px" height="24px" viewBox="0 0 145 24" version="1.1" xmlns="http://www.w3.org/2000/svg" xmlns:xlink="http://www.w3.org/1999/xlink">
    <!-- Generator: Sketch 51 (57462) - http://www.bohemiancoding.com/sketch -->
    <title>footer-logo-hk</title>
    <desc>Created with Sketch.</desc>
    <defs></defs>
    <g id="Symbols" stroke="none" stroke-width="1" fill="none" fill-rule="evenodd">
        <g id="Support-/-Static-/-Support-Footer-/-Desktop" transform="translate(-641.000000, -513.000000)" fill="#E7EEF0">
            <g id="Logo-group" transform="translate(260.000000, 492.000000)">
                <g id="footer-logo-hk" transform="translate(381.000000, 21.000000)">
                    <path d="M143.764045,4.931389 C143.092369,4.931389 142.523534,4.42514053 142.523534,3.73378411 C142.523534,3.05029735 143.092369,2.54409776 143.764045,2.54409776 C144.431165,2.54409776 145,3.05029735 145,3.73378411 C145,4.42514053 144.431165,4.931389 143.764045,4.931389 Z M143.764045,2.7425499 C143.206576,2.7425499 142.769073,3.16961303 142.769073,3.73378411 C142.769073,4.30807332 143.206576,4.73176375 143.764045,4.73176375 C144.316908,4.73176375 144.754361,4.30807332 144.754361,3.73378411 C144.754361,3.16961303 144.316908,2.7425499 143.764045,2.7425499 Z M143.961668,3.82079022 L144.362621,4.42514053 L144.12269,4.42514053 L143.751428,3.82973523 L143.504687,3.82973523 L143.504687,4.42514053 L143.293396,4.42514053 L143.293396,3.05029735 L143.827983,3.05029735 C144.162745,3.05029735 144.327172,3.16961303 144.327172,3.43942974 C144.327172,3.68813035 144.170656,3.79400407 143.961668,3.82079022 Z M143.795989,3.22758452 L143.504687,3.22758452 L143.504687,3.65132383 L143.76059,3.65132383 C143.942191,3.65132383 144.105566,3.63905499 144.105566,3.42940937 C144.105566,3.25994297 143.944494,3.22758452 143.795989,3.22758452 Z M141.363384,22.9059715 L136.020915,17.6484073 L136.020915,23.0853605 L135.098493,23.0853605 L135.098493,15.8741181 L136.113242,15.8741181 L141.378204,20.9176864 L141.378204,16.2692627 C141.378204,16.1871446 141.396329,16.1179308 141.431778,16.0640652 C141.463923,16.0133279 141.508434,15.9723177 141.561207,15.9425499 C141.610675,15.9143951 141.664249,15.8958697 141.721127,15.8854094 C141.777205,15.8773931 141.82417,15.8741181 141.867029,15.8741181 L142.284955,15.8741181 L142.284955,23.0853605 L142.175304,23.0853605 C141.881849,23.0853605 141.580984,23.1014908 141.363384,22.9059715 Z M139.420454,7.58918126 C139.420454,6.696 139.300539,5.64009776 137.46706,5.64009776 C135.824444,5.64009776 135.498945,6.51318941 135.498945,7.32826069 L135.498945,13.562444 L132.793964,13.562444 L132.793964,3.50703055 L135.498945,3.50703055 L135.498945,5.02680244 L135.537749,5.02680244 C136.055262,3.96977597 137.060499,3.34201222 138.106792,3.34201222 C140.499943,3.34201222 142.120879,4.30538493 142.120879,6.82650916 L142.120879,13.562444 L139.420454,13.562444 L139.420454,7.58918126 Z M125.847883,13.9885295 C124.497671,13.9885295 123.163531,13.5781344 122.23485,12.7630631 C121.196417,11.8543381 120.694976,10.2977108 120.694976,8.66082281 C120.694976,7.03063136 121.196417,5.47517719 122.23485,4.56415479 C123.163531,3.74683503 124.497671,3.34210998 125.847883,3.34210998 C127.199247,3.34210998 128.531184,3.74683503 129.461067,4.56415479 C130.499399,5.47517719 131.004246,7.03063136 131.004246,8.66082281 C131.004246,10.2977108 130.499399,11.8543381 129.461067,12.7630631 C128.531184,13.5781344 127.199247,13.9885295 125.847883,13.9885295 Z M127.776093,6.69614664 C127.276904,5.8620611 126.524116,5.56658248 125.847883,5.56658248 C125.171701,5.56658248 124.417711,5.8620611 123.917421,6.69614664 C123.702674,7.08752749 123.412474,7.82678615 123.412474,8.66082281 C123.412474,9.49935642 123.702674,10.2397393 123.917421,10.6288717 C124.417711,11.4640326 125.171701,11.7606354 125.847883,11.7606354 C126.524116,11.7606354 127.276904,11.4640326 127.776093,10.6288717 C127.990839,10.2397393 128.281039,9.49935642 128.281039,8.66082281 C128.281039,7.82678615 127.990839,7.08752749 127.776093,6.69614664 Z M123.721,15.8744603 L123.721,23.0857026 L123.115114,23.0857026 C123.021985,23.0857026 122.922198,23.0752424 122.810093,23.0567658 C122.695535,23.0382403 122.586735,23.0004073 122.4886,22.9448798 C122.388111,22.8877882 122.303995,22.8081141 122.238054,22.7091324 C122.170461,22.6061426 122.134161,22.4717719 122.134161,22.3091976 L122.134161,17.5368635 L118.898698,23.0857026 L118.48658,23.0857026 L115.163696,17.4934094 L115.163696,23.0857026 L114.356683,23.0857026 L114.356683,15.8744603 L115.922944,15.8744603 L119.079247,21.2157067 L122.173766,15.8744603 L123.721,15.8744603 Z M116.214246,12.5586965 L116.17429,12.5586965 C115.439777,13.5990061 114.380867,13.9525051 113.526438,13.9881385 C111.639285,14.0584277 110.557593,13.3358859 109.744221,11.6655153 C109.321588,10.7589898 109.009708,9.85134012 108.953731,8.86792668 C108.895501,7.88553971 109.088567,6.82626477 109.628812,5.62088798 C110.515235,3.67292872 112.235608,3.39861507 113.219114,3.34176782 C114.977089,3.26703055 115.790461,4.02637882 116.17429,4.8783055 L116.214246,4.8783055 L116.214246,0.0412545825 L118.913519,0.0412545825 L118.913519,13.6168473 L116.214246,13.6168473 L116.214246,12.5586965 Z M115.750456,6.71696945 C115.283261,5.88405703 114.57163,5.58408147 113.953627,5.58408147 C113.316198,5.58408147 112.601162,5.88405703 112.138474,6.71696945 C111.947761,7.10722607 111.674734,7.84760896 111.674734,8.68389409 C111.674734,9.51797963 111.947761,10.2583625 112.138474,10.6497434 C112.601162,11.48378 113.316198,11.7792587 113.953627,11.7792587 C114.57163,11.7792587 115.283261,11.48378 115.750456,10.6497434 C115.941219,10.2583625 116.214246,9.51797963 116.214246,8.68389409 C116.214246,7.84760896 115.941219,7.10722607 115.750456,6.71696945 Z M110.720418,16.2296212 C111.50515,16.6030143 111.837358,17.1284236 111.837358,17.7946558 C111.837358,18.4617189 111.41778,19.2478534 109.918311,19.6429491 L112.939429,23.0852141 L111.727707,23.0852138 C111.727707,23.0852138 111.473006,23.0859959 111.176247,22.9902892 C110.879487,22.8945336 110.558845,22.5066721 110.558845,22.5066721 L108.226828,19.7885621 L107.416561,19.7885621 L107.416561,23.0836008 L105.834679,23.0836008 L105.834679,15.8731894 L108.737883,15.8731894 C108.737883,15.8731894 109.935635,15.856277 110.720418,16.2296212 Z M108.46751,16.5072587 L107.412405,16.5072587 L107.412405,19.2390061 L108.144415,19.2390061 C108.144415,19.2390061 108.870616,19.2486843 109.342167,18.9911853 C109.813617,18.7336864 110.148329,18.3756415 110.148329,17.840554 C110.148329,17.3054664 109.787281,16.8306965 109.278679,16.6440244 C109.278679,16.6440244 108.986827,16.5072587 108.46751,16.5072587 Z M104.778772,7.90250102 L104.778772,13.562444 L102.078398,13.562444 L102.078398,3.50703055 L104.778772,3.50703055 L104.778772,5.45386558 L104.823334,5.45386558 C104.995822,4.86065988 105.130658,4.51165784 106.077614,3.87832179 C106.540202,3.5449613 107.1548,3.21375153 108.004672,3.34201222 L108.004672,5.99134827 C106.846324,5.86201222 105.107776,5.71366191 104.778772,7.90250102 Z M103.374536,23.0857026 C103.133804,23.0857026 102.935129,23.0438615 102.78347,22.951332 C102.633413,22.8604155 102.504836,22.7131405 102.401794,22.5127821 L101.490136,20.7924562 L98.6082614,20.7924562 L99.0105663,20.0570102 L101.092788,20.0570102 L99.7952987,17.6334012 L96.79476,23.0848717 L95.8707355,23.0848717 L99.9272307,15.7143299 L100.39052,15.7143299 L104.348028,23.0857026 L103.374536,23.0857026 Z M97.0769993,12.5594786 C96.12774,13.4102322 95.3006992,13.9889695 93.7174154,13.9889695 C91.5893301,13.9889695 90.5475932,12.8382403 90.628655,10.8880326 C90.6857838,9.47863136 91.2660342,8.10711202 93.6591851,7.71793075 C94.6610169,7.68004888 95.7416074,7.45925866 96.383643,7.25523422 C96.8622531,7.08571894 97.0940729,6.60293279 97.0587241,6.121222 C97.0587241,5.49120978 96.5172773,5.21132383 95.282374,5.21132383 C93.7334876,5.21132383 93.543826,6.121222 93.5026692,6.84601222 L90.9542041,6.84601222 C90.9919061,3.63578004 93.8510998,3.3425499 95.282374,3.3425499 C96.3196046,3.3425499 97.2277573,3.50756823 97.7509289,3.71051731 C98.7938674,4.11749084 99.6232113,4.93481059 99.6232113,6.52819552 L99.6232113,12.0209206 C99.6037345,12.4680244 99.8756595,12.9118045 100.222888,13.2084073 L100.222888,13.5618574 L97.3648964,13.5618574 C97.1706285,13.3188269 97.0587241,12.9118045 97.0769993,12.5594786 Z M97.0587241,8.830778 C96.2842058,9.27680652 95.2424189,9.23887576 94.5444561,9.37153564 C93.7174154,9.51763747 93.137115,10.1844073 93.3702365,10.9995275 C93.5209444,11.5949328 94.0053125,12.0209206 95.1636602,11.836888 C96.7685739,11.5949328 97.0587241,10.5178167 97.0587241,9.40721792 L97.0587241,8.830778 Z M86.6837638,13.5631283 L84.2323826,9.2579389 L83.1106854,10.4243096 L83.1106854,13.5631283 L80.409059,13.5631283 L80.409059,0.0410101833 L83.1106854,0.0410101833 L83.1106854,7.41922607 L83.1506405,7.41922607 L86.5261464,3.50771487 L89.6195131,3.50771487 L86.0863398,7.34791039 L89.8479282,13.5631283 L86.6837638,13.5631283 Z M69.4119907,13.5800407 L77.7039278,0 L78.2202901,0 L69.9042697,13.5800407 L69.4119907,13.5800407 Z M64.5584461,7.58918126 C64.5584461,6.696 64.4384807,5.64009776 62.6051019,5.64009776 C60.9635877,5.64009776 60.6391903,6.51318941 60.6391903,7.32826069 L60.6391903,13.562444 L57.9331077,13.562444 L57.9331077,3.50703055 L60.6391903,3.50703055 L60.6391903,5.02680244 L60.6734876,5.02680244 C61.1988622,3.96977597 62.2018957,3.34201222 63.2458857,3.34201222 C65.6401882,3.34201222 67.261124,4.30538493 67.261124,6.82650916 L67.261124,13.562444 L64.5584461,13.562444 L64.5584461,7.58918126 Z M52.9104299,12.5594786 C51.9622721,13.4102322 51.1352314,13.9889695 49.5508961,13.9889695 C47.4296702,13.9889695 46.3866816,12.8382403 46.4620856,10.8880326 C46.5214675,9.47863136 47.0995148,8.10711202 49.4926157,7.71793075 C50.4989537,7.68004888 51.5796443,7.45925866 52.2170235,7.25523422 C52.7013916,7.08571894 52.9321098,6.60293279 52.8932562,6.121222 C52.8932562,5.49120978 52.3495062,5.21132383 51.1169561,5.21132383 C49.5691713,5.21132383 49.3784081,6.121222 49.338403,6.84601222 L46.7887863,6.84601222 C46.8276398,3.63578004 49.6890867,3.3425499 51.1169561,3.3425499 C52.1587431,3.3425499 53.0669458,3.50756823 53.5866126,3.71051731 C54.6319044,4.11749084 55.4600466,4.93481059 55.4600466,6.52819552 L55.4600466,12.0209206 C55.4406198,12.4680244 55.7101916,12.9118045 56.0563691,13.2084073 L56.0563691,13.5618574 L53.2005801,13.5618574 C53.0075138,13.3188269 52.8932562,12.9118045 52.9104299,12.5594786 Z M52.8932562,8.830778 C52.1198895,9.27680652 51.077001,9.23887576 50.3836447,9.37153564 C49.5508961,9.51763747 48.9717472,10.1844073 49.2047686,10.9995275 C49.3589814,11.5949328 49.8410463,12.0209206 51.0004955,11.836888 C52.6031561,11.5949328 52.8932562,10.5178167 52.8932562,9.40721792 L52.8932562,8.830778 Z M42.1332648,6.64228106 C42.0932096,5.89852546 41.4227348,5.62088798 40.7818508,5.5852057 C39.3357061,5.49155193 38.8147876,6.71696945 38.8147876,7.40275356 L38.8147876,13.5621996 L36.108655,13.5621996 L36.108655,6.64228106 C35.9544423,5.93645621 35.4723774,5.60309572 34.6237068,5.5852057 C33.675549,5.56628921 32.7891264,6.16057026 32.7891264,7.40275356 L32.7891264,13.5621996 L30.085347,13.5621996 L30.085347,3.50678615 L32.7891264,3.50678615 L32.7891264,5.00984114 L32.8245252,5.00984114 C33.675549,3.82010591 34.4489157,3.13544603 36.0333011,3.34176782 C37.3629351,3.50678615 37.7341972,3.95281466 38.5029575,4.80356823 C39.1586619,3.91600815 39.9719838,3.09976375 42.1697652,3.34176782 C44.2601985,3.6361222 44.8347911,4.97195927 44.8347911,6.58543381 L44.8347911,13.5621996 L42.1332648,13.5621996 L42.1332648,6.64228106 Z M24.9855628,7.90250102 L24.9855628,13.562444 L22.2805818,13.562444 L22.2805818,3.50703055 L24.9855628,3.50703055 L24.9855628,5.45386558 L25.0244164,5.45386558 C25.1957027,4.86065988 25.3328419,4.51165784 26.2763933,3.87832179 C26.7401329,3.5449613 27.3592869,3.21375153 28.2080076,3.34201222 L28.2080076,5.99134827 C27.0497099,5.86201222 25.3110618,5.71366191 24.9855628,7.90250102 Z M17.2782821,12.5594786 C16.3347307,13.4102322 15.5030836,13.9889695 13.9198999,13.9889695 C11.7963208,13.9889695 10.7522807,12.8382403 10.8276847,10.8880326 C10.8905214,9.47863136 11.4674171,8.10711202 13.8616195,7.71793075 C14.866856,7.68004888 15.9486481,7.45925866 16.5848757,7.25523422 C17.0669406,7.08571894 17.2965573,6.60293279 17.2611084,6.121222 C17.2611084,5.49120978 16.7185601,5.21132383 15.4848584,5.21132383 C13.9381751,5.21132383 13.7463104,6.121222 13.7062552,6.84601222 L11.1566385,6.84601222 C11.1977952,3.63578004 14.0535342,3.3425499 15.4848584,3.3425499 C16.5265953,3.3425499 17.434798,3.50756823 17.9545148,3.71051731 C18.9974534,4.11749084 19.8278988,4.93481059 19.8278988,6.52819552 L19.8278988,12.0209206 C19.8107251,12.4680244 20.0780439,12.9118045 20.4253229,13.2084073 L20.4253229,13.5618574 L17.5684323,13.5618574 C17.3742144,13.3188269 17.2611084,12.9118045 17.2782821,12.5594786 Z M17.2611084,8.830778 C16.4877918,9.27680652 15.4460048,9.23887576 14.7492438,9.37153564 C13.9198999,9.51763747 13.340751,10.1844073 13.5726209,10.9995275 C13.7245304,11.5949328 14.2088985,12.0209206 15.3660445,11.836888 C16.9710083,11.5949328 17.2611084,10.5178167 17.2611084,9.40721792 L17.2611084,8.830778 Z M6.6253384,7.58874134 C6.6253384,6.69560896 6.50657459,5.63965784 4.67309565,5.63965784 C3.03047997,5.63965784 2.70608253,6.51270061 2.70608253,7.32782077 L2.70608253,13.5631283 L0,13.5631283 L0,0.0410101833 L2.70608253,0.0410101833 L2.70608253,4.84350305 L2.74148135,4.84350305 C3.26234979,3.96933605 4.2676364,3.3415723 5.31277797,3.3415723 C7.70708046,3.3415723 9.32691471,4.30494501 9.32691471,6.82606925 L9.32691471,13.5631283 L6.6253384,13.5631283 L6.6253384,7.58874134 Z M81.3010394,21.1165784 C81.5318577,20.9009206 81.7436999,20.7737841 82.0981889,20.7737841 C82.6793405,20.7737841 83.0824465,21.1962037 83.0824465,21.8005051 C83.0824465,22.5086273 82.5952244,22.9640407 81.8467421,22.9640407 C81.5812759,22.9640407 81.3645269,22.9165784 81.0645131,22.8039104 L81.0645131,19.7236986 L81.3010394,19.7236986 L81.3010394,21.1165784 Z M81.3010394,22.6445621 C81.498011,22.715389 81.6694976,22.7435438 81.8418353,22.7435438 C82.41798,22.7435438 82.8318008,22.3541181 82.8318008,21.8150224 C82.8318008,21.3177189 82.5119596,20.9612872 82.0684979,20.9612872 C81.7931682,20.9612872 81.5664555,21.0835845 81.3010394,21.3692383 L81.3010394,22.6445621 Z M83.6489779,20.8160652 L84.4510843,22.2885214 L85.2144372,20.8160652 L85.4559202,20.8160652 L83.8015383,24 L83.5600052,24 L84.3331716,22.5138574 L83.402538,20.8160652 L83.6489779,20.8160652 Z M88.9017731,19.0770183 L92.8082614,19.0770183 L92.8082614,15.8745092 L94.3900932,15.8745092 L94.3900932,23.0857515 L93.7842075,23.0857515 C93.6927314,23.0857515 93.5937949,23.0769532 93.480038,23.0584277 C93.3646288,23.0382892 93.2566298,23.0005051 93.1593456,22.9465418 C93.0580059,22.8894501 92.9739399,22.8106069 92.9071478,22.7107943 C92.8403557,22.6070224 92.806559,22.4726517 92.806559,22.3109084 L92.8082614,19.7239919 L88.9017731,19.7239919 L88.9017731,23.0857515 L87.3206923,23.0857515 L87.3206923,15.8745092 L88.9017731,15.8745092 L88.9017731,19.0770183 Z M129.686378,15.7147699 L133.639831,23.0852627 L132.674549,23.0852627 C132.433867,23.0852627 132.235143,23.0434705 132.083534,22.9508921 C131.933477,22.8599756 131.8049,22.7119185 131.701858,22.512391 L129.090356,17.6337923 L127.759119,20.0574012 L129.829826,20.0574012 L130.227124,20.7928473 L127.355212,20.7928473 L126.097277,23.0860937 L125.172402,23.0860937 L129.222288,15.7147699 L129.686378,15.7147699 Z" id="HK-logo"></path>
                </g>
            </g>
        </g>
    </g>
</svg>